<svg xmlns="http://www.w3.org/2000/svg" xmlns:xlink="http://www.w3.org/1999/xlink" xmlns:lucid="lucid" width="4083" height="1736.68"><g transform="translate(521.5 -98.5)" lucid:page-tab-id="0_0"><path d="M-1000 0h5000v2000h-5000z" fill="#fff"/><path d="M910 106a6 6 0 0 1 6-6h328a6 6 0 0 1 6 6v228a6 6 0 0 1-6 6H916a6 6 0 0 1-6-6z" stroke="#000" stroke-width="3" fill="#fff"/><use xlink:href="#a" transform="matrix(1,0,0,1,922,112) translate(89.24565972222223 77.38888888888889)"/><use xlink:href="#b" transform="matrix(1,0,0,1,922,112) translate(74.01671006944444 122.56076388888889)"/><use xlink:href="#c" transform="matrix(1,0,0,1,922,112) translate(168.42860243055554 122.56076388888889)"/><use xlink:href="#d" transform="matrix(1,0,0,1,922,112) translate(68.52517361111111 167.73263888888889)"/><use xlink:href="#e" transform="matrix(1,0,0,1,922,112) translate(173.92013888888889 167.73263888888889)"/><path d="M480 546a6 6 0 0 1 6-6h548a6 6 0 0 1 6 6v190.42a6 6 0 0 1-6 6H486a6 6 0 0 1-6-6z" stroke="#000" stroke-width="3" fill="#fff"/><use xlink:href="#f" transform="matrix(1,0,0,1,492,552) translate(176.30729166666666 58.10763888888889)"/><use xlink:href="#g" transform="matrix(1,0,0,1,492,552) translate(184.01671006944446 103.27951388888889)"/><use xlink:href="#h" transform="matrix(1,0,0,1,492,552) translate(278.42860243055554 103.27951388888889)"/><use xlink:href="#i" transform="matrix(1,0,0,1,492,552) translate(32.17534722222223 148.45138888888889)"/><use xlink:href="#j" transform="matrix(1,0,0,1,492,552) translate(137.5703125 148.45138888888889)"/><use xlink:href="#k" transform="matrix(1,0,0,1,492,552) translate(255.84722222222223 148.45138888888889)"/><use xlink:href="#l" transform="matrix(1,0,0,1,492,552) translate(392.56597222222223 148.45138888888889)"/><path d="M1120 546a6 6 0 0 1 6-6h518a6 6 0 0 1 6 6v228a6 6 0 0 1-6 6h-518a6 6 0 0 1-6-6z" stroke="#000" stroke-width="3" fill="#fff"/><use xlink:href="#m" transform="matrix(1,0,0,1,1132,552) translate(187.52690972222223 30.138888888888893)"/><use xlink:href="#n" transform="matrix(1,0,0,1,1132,552) translate(32.19162326388886 75.3107638888889)"/><use xlink:href="#o" transform="matrix(1,0,0,1,1132,552) translate(133.97113715277774 75.3107638888889)"/><use xlink:href="#p" transform="matrix(1,0,0,1,1132,552) translate(234.33789062499997 75.3107638888889)"/><use xlink:href="#q" transform="matrix(1,0,0,1,1132,552) translate(394.8912760416667 75.3107638888889)"/><use xlink:href="#r" transform="matrix(1,0,0,1,1132,552) translate(71.83246527777777 120.48263888888891)"/><use xlink:href="#s" transform="matrix(1,0,0,1,1132,552) translate(270.36328125 120.48263888888891)"/><use xlink:href="#t" transform="matrix(1,0,0,1,1132,552) translate(65.42187499999997 165.6545138888889)"/><use xlink:href="#u" transform="matrix(1,0,0,1,1132,552) translate(267.765625 165.6545138888889)"/><use xlink:href="#i" transform="matrix(1,0,0,1,1132,552) translate(163.52517361111111 210.8263888888889)"/><use xlink:href="#e" transform="matrix(1,0,0,1,1132,552) translate(268.9201388888889 210.8263888888889)"/><path d="M125 986a6 6 0 0 1 6-6h408a6 6 0 0 1 6 6v203.1a6 6 0 0 1-6 6H131a6 6 0 0 1-6-6z" stroke="#000" stroke-width="3" fill="#fff"/><use xlink:href="#v" transform="matrix(1,0,0,1,137.00000000000006,992) translate(126.84418402777776 42.13888888888889)"/><use xlink:href="#g" transform="matrix(1,0,0,1,137.00000000000006,992) translate(21.8745659722222 87.3107638888889)"/><use xlink:href="#w" transform="matrix(1,0,0,1,137.00000000000006,992) translate(116.28645833333331 87.3107638888889)"/><use xlink:href="#x" transform="matrix(1,0,0,1,137.00000000000006,992) translate(250.71137152777777 87.3107638888889)"/><use xlink:href="#i" transform="matrix(1,0,0,1,137.00000000000006,992) translate(33.693142361111086 132.4826388888889)"/><use xlink:href="#y" transform="matrix(1,0,0,1,137.00000000000006,992) translate(139.08810763888886 132.4826388888889)"/><use xlink:href="#z" transform="matrix(1,0,0,1,137.00000000000006,992) translate(223.03342013888886 132.4826388888889)"/><use xlink:href="#A" transform="matrix(1,0,0,1,137.00000000000006,992) translate(71.51106770833333 177.6545138888889)"/><use xlink:href="#B" transform="matrix(1,0,0,1,137.00000000000006,992) translate(232.99110243055554 177.6545138888889)"/><path d="M1205 970.46a6 6 0 0 1 6-6h348a6 6 0 0 1 6 6v188a6 6 0 0 1-6 6h-348a6 6 0 0 1-6-6z" stroke="#000" stroke-width="3" fill="#fff"/><use xlink:href="#C" transform="matrix(1,0,0,1,1217,976.4572112916667) translate(60.2124565972222 52.13888888888889)"/><use xlink:href="#g" transform="matrix(1,0,0,1,1217,976.4572112916667) translate(93.25282118055554 97.31076388888889)"/><use xlink:href="#D" transform="matrix(1,0,0,1,1217,976.4572112916667) translate(187.66471354166666 97.31076388888889)"/><use xlink:href="#i" transform="matrix(1,0,0,1,1217,976.4572112916667) translate(29.99761284722223 142.48263888888889)"/><use xlink:href="#E" transform="matrix(1,0,0,1,1217,976.4572112916667) translate(135.392578125 142.48263888888889)"/><path d="M405 1354.57a6 6 0 0 1 6-6h468a6 6 0 0 1 6 6v206.6a6 6 0 0 1-6 6H411a6 6 0 0 1-6-6z" stroke="#000" stroke-width="3" fill="#fff"/><use xlink:href="#F" transform="matrix(1,0,0,1,417.0000000000001,1360.5667317708342) translate(178.1052517361111 42.32638888888889)"/><use xlink:href="#g" transform="matrix(1,0,0,1,417.0000000000001,1360.5667317708342) translate(144.01671006944446 87.4982638888889)"/><use xlink:href="#G" transform="matrix(1,0,0,1,417.0000000000001,1360.5667317708342) translate(238.42860243055557 87.4982638888889)"/><use xlink:href="#i" transform="matrix(1,0,0,1,417.0000000000001,1360.5667317708342) translate(48.12369791666666 132.6701388888889)"/><use xlink:href="#H" transform="matrix(1,0,0,1,417.0000000000001,1360.5667317708342) translate(153.51866319444443 132.6701388888889)"/><use xlink:href="#I" transform="matrix(1,0,0,1,417.0000000000001,1360.5667317708342) translate(280.91015625 132.6701388888889)"/><use xlink:href="#J" transform="matrix(1,0,0,1,417.0000000000001,1360.5667317708342) translate(47.05273437499994 177.8420138888889)"/><use xlink:href="#K" transform="matrix(1,0,0,1,417.0000000000001,1360.5667317708342) translate(180.04969618055554 177.8420138888889)"/><use xlink:href="#L" transform="matrix(1,0,0,1,417.0000000000001,1360.5667317708342) translate(209.38346354166666 177.8420138888889)"/><use xlink:href="#M" transform="matrix(1,0,0,1,417.0000000000001,1360.5667317708342) translate(297.68858506944446 177.8420138888889)"/><path d="M20 1621.1a6 6 0 0 1 6-6h618a6 6 0 0 1 6 6v206.58a6 6 0 0 1-6 6H26a6 6 0 0 1-6-6z" stroke="#000" stroke-width="3" fill="#fff"/><use xlink:href="#N" transform="matrix(1,0,0,1,32.000000000000114,1627.0864085000003) translate(225.822265625 42.32638888888889)"/><use xlink:href="#g" transform="matrix(1,0,0,1,32.000000000000114,1627.0864085000003) translate(219.01671006944446 87.4982638888889)"/><use xlink:href="#G" transform="matrix(1,0,0,1,32.000000000000114,1627.0864085000003) translate(313.42860243055554 87.4982638888889)"/><use xlink:href="#i" transform="matrix(1,0,0,1,32.000000000000114,1627.0864085000003) translate(168.54470486111111 132.6701388888889)"/><use xlink:href="#O" transform="matrix(1,0,0,1,32.000000000000114,1627.0864085000003) translate(273.9396701388889 132.6701388888889)"/><use xlink:href="#P" transform="matrix(1,0,0,1,32.000000000000114,1627.0864085000003) translate(57.886067708333314 177.8420138888889)"/><use xlink:href="#M" transform="matrix(1,0,0,1,32.000000000000114,1627.0864085000003) translate(436.8552517361111 177.8420138888889)"/><path d="M940 1306a6 6 0 0 1 6-6h488a6 6 0 0 1 6 6v212.94a6 6 0 0 1-6 6H946a6 6 0 0 1-6-6z" stroke="#000" stroke-width="3" fill="#fff"/><use xlink:href="#Q" transform="matrix(1,0,0,1,952,1312) translate(198.76171875 42.70138888888889)"/><use xlink:href="#g" transform="matrix(1,0,0,1,952,1312) translate(154.01671006944446 87.8732638888889)"/><use xlink:href="#G" transform="matrix(1,0,0,1,952,1312) translate(248.42860243055557 87.8732638888889)"/><use xlink:href="#i" transform="matrix(1,0,0,1,952,1312) translate(40.00086805555554 133.0451388888889)"/><use xlink:href="#R" transform="matrix(1,0,0,1,952,1312) translate(145.39583333333331 133.0451388888889)"/><use xlink:href="#K" transform="matrix(1,0,0,1,952,1312) translate(219.60373263888889 133.0451388888889)"/><use xlink:href="#S" transform="matrix(1,0,0,1,952,1312) translate(248.9375 133.0451388888889)"/><use xlink:href="#T" transform="matrix(1,0,0,1,952,1312) translate(348.16493055555554 133.0451388888889)"/><use xlink:href="#U" transform="matrix(1,0,0,1,952,1312) translate(3.291883680555543 178.2170138888889)"/><use xlink:href="#V" transform="matrix(1,0,0,1,952,1312) translate(172.2306857638889 178.2170138888889)"/><use xlink:href="#M" transform="matrix(1,0,0,1,952,1312) translate(361.4494357638889 178.2170138888889)"/><path d="M800 986a6 6 0 0 1 6-6h208a6 6 0 0 1 6 6v145.58a6 6 0 0 1-6 6H806a6 6 0 0 1-6-6z" stroke="#000" stroke-width="3" fill="#fff"/><use xlink:href="#W" transform="matrix(1,0,0,1,812,992) translate(45.07465277777778 34.32638888888889)"/><use xlink:href="#g" transform="matrix(1,0,0,1,812,992) translate(14.016710069444443 79.4982638888889)"/><use xlink:href="#G" transform="matrix(1,0,0,1,812,992) translate(108.42860243055556 79.4982638888889)"/><use xlink:href="#i" transform="matrix(1,0,0,1,812,992) translate(8.525173611111114 124.67013888888891)"/><use xlink:href="#e" transform="matrix(1,0,0,1,812,992) translate(113.92013888888889 124.67013888888891)"/><path d="M1460 1308.47a6 6 0 0 1 6-6h508a6 6 0 0 1 6 6v208a6 6 0 0 1-6 6h-508a6 6 0 0 1-6-6z" stroke="#000" stroke-width="3" fill="#fff"/><g><use xlink:href="#F" transform="matrix(1,0,0,1,1472,1314.4715169270835) translate(198.1052517361111 42.45138888888889)"/><use xlink:href="#g" transform="matrix(1,0,0,1,1472,1314.4715169270835) translate(164.01671006944446 87.6232638888889)"/><use xlink:href="#G" transform="matrix(1,0,0,1,1472,1314.4715169270835) translate(258.42860243055554 87.6232638888889)"/><use xlink:href="#i" transform="matrix(1,0,0,1,1472,1314.4715169270835) translate(1.6252170138888573 132.7951388888889)"/><use xlink:href="#H" transform="matrix(1,0,0,1,1472,1314.4715169270835) translate(107.02018229166663 132.7951388888889)"/><use xlink:href="#X" transform="matrix(1,0,0,1,1472,1314.4715169270835) translate(234.4116753472222 132.7951388888889)"/><use xlink:href="#Y" transform="matrix(1,0,0,1,1472,1314.4715169270835) translate(370.12782118055554 132.7951388888889)"/><use xlink:href="#K" transform="matrix(1,0,0,1,1472,1314.4715169270835) translate(133.55121527777777 177.9670138888889)"/><use xlink:href="#L" transform="matrix(1,0,0,1,1472,1314.4715169270835) translate(162.88498263888889 177.9670138888889)"/><use xlink:href="#M" transform="matrix(1,0,0,1,1472,1314.4715169270835) translate(251.19010416666669 177.9670138888889)"/></g><path d="M1080 343v91a6 6 0 0 1-6 6H766a6 6 0 0 0-6 6v71.88" stroke="#3a414a" stroke-width="3" fill="none"/><path d="M1081.47 343.04h-2.94v-1.54h2.94z" stroke="#3a414a" stroke-width=".05" fill="#3a414a"/><path d="M760 533.65l-4.63-14.27h9.26z" stroke="#3a414a" stroke-width="3" fill="#3a414a"/><path d="M1080 343v91a6 6 0 0 0 6 6h293a6 6 0 0 1 6 6v71.88" stroke="#3a414a" stroke-width="3" fill="none"/><path d="M1081.47 343.04h-2.94v-1.54h2.94z" stroke="#3a414a" stroke-width=".05" fill="#3a414a"/><path d="M1385 533.65l-4.63-14.27h9.27z" stroke="#3a414a" stroke-width="3" fill="#3a414a"/><path d="M335 1198.1v394.87" stroke="#3a414a" stroke-width="3" fill="none"/><path d="M336.48 1198.13h-2.96v-1.54h2.96z" stroke="#3a414a" stroke-width=".05" fill="#3a414a"/><path d="M335 1608.73l-4.63-14.26h9.26z" stroke="#3a414a" stroke-width="3" fill="#3a414a"/><path d="M335 1198.1v27a6 6 0 0 0 6 6h298a6 6 0 0 1 6 6v89.35" stroke="#3a414a" stroke-width="3" fill="none"/><path d="M336.48 1198.13h-2.96v-1.54h2.96z" stroke="#3a414a" stroke-width=".05" fill="#3a414a"/><path d="M645 1342.2l-4.63-14.25h9.26z" stroke="#3a414a" stroke-width="3" fill="#3a414a"/><path d="M1385 1167.46v60a6 6 0 0 0 6 6h323a6 6 0 0 1 6 6v40.9" stroke="#3a414a" stroke-width="3" fill="none"/><path d="M1386.47 1167.5h-2.94v-1.54h2.94z" stroke="#3a414a" stroke-width=".05" fill="#3a414a"/><path d="M1720 1296.12l-4.63-14.27h9.27z" stroke="#3a414a" stroke-width="3" fill="#3a414a"/><path d="M1385 1167.46v58.77a6 6 0 0 1-6 6h-183a6 6 0 0 0-6 6v39.65" stroke="#3a414a" stroke-width="3" fill="none"/><path d="M1386.47 1167.5h-2.94v-1.54h2.94z" stroke="#3a414a" stroke-width=".05" fill="#3a414a"/><path d="M1190 1293.65l-4.63-14.27h9.27z" stroke="#3a414a" stroke-width="3" fill="#3a414a"/><path d="M2070 954.8a6 6 0 0 1 6-6h448a6 6 0 0 1 6 6v233.1a6 6 0 0 1-6 6h-448a6 6 0 0 1-6-6z" stroke="#000" stroke-width="3" fill="#fff"/><g><use xlink:href="#Z" transform="matrix(1,0,0,1,2082,960.8042719583334) translate(138.9157986111111 37.07638888888889)"/><use xlink:href="#g" transform="matrix(1,0,0,1,2082,960.8042719583334) translate(134.01671006944446 82.2482638888889)"/><use xlink:href="#G" transform="matrix(1,0,0,1,2082,960.8042719583334) translate(228.42860243055557 82.2482638888889)"/><use xlink:href="#aa" transform="matrix(1,0,0,1,2082,960.8042719583334) translate(73.72374131944443 127.42013888888891)"/><use xlink:href="#ab" transform="matrix(1,0,0,1,2082,960.8042719583334) translate(180.50108506944443 127.42013888888891)"/><use xlink:href="#ac" transform="matrix(1,0,0,1,2082,960.8042719583334) translate(52.28168402777777 172.5920138888889)"/><use xlink:href="#ad" transform="matrix(1,0,0,1,2082,960.8042719583334) translate(210.26779513888889 172.5920138888889)"/><use xlink:href="#ae" transform="matrix(1,0,0,1,2082,960.8042719583334) translate(66.21940104166669 217.7638888888889)"/><use xlink:href="#M" transform="matrix(1,0,0,1,2082,960.8042719583334) translate(258.52191840277777 217.7638888888889)"/></g><path d="M2040 1313.48a6 6 0 0 1 6-6h508a6 6 0 0 1 6 6v203a6 6 0 0 1-6 6h-508a6 6 0 0 1-6-6z" stroke="#000" stroke-width="3" fill="#fff"/><g><use xlink:href="#Q" transform="matrix(1,0,0,1,2052,1319.4838867187502) translate(208.76171875 36.10763888888889)"/><use xlink:href="#g" transform="matrix(1,0,0,1,2052,1319.4838867187502) translate(164.01671006944446 81.2795138888889)"/><use xlink:href="#G" transform="matrix(1,0,0,1,2052,1319.4838867187502) translate(258.42860243055554 81.2795138888889)"/><use xlink:href="#i" transform="matrix(1,0,0,1,2052,1319.4838867187502) translate(50.00086805555554 126.45138888888891)"/><use xlink:href="#R" transform="matrix(1,0,0,1,2052,1319.4838867187502) translate(155.39583333333331 126.45138888888891)"/><use xlink:href="#K" transform="matrix(1,0,0,1,2052,1319.4838867187502) translate(229.60373263888889 126.45138888888891)"/><use xlink:href="#S" transform="matrix(1,0,0,1,2052,1319.4838867187502) translate(258.9375 126.45138888888891)"/><use xlink:href="#T" transform="matrix(1,0,0,1,2052,1319.4838867187502) translate(358.16493055555554 126.45138888888891)"/><use xlink:href="#U" transform="matrix(1,0,0,1,2052,1319.4838867187502) translate(13.291883680555543 171.6232638888889)"/><use xlink:href="#V" transform="matrix(1,0,0,1,2052,1319.4838867187502) translate(182.2306857638889 171.6232638888889)"/><use xlink:href="#M" transform="matrix(1,0,0,1,2052,1319.4838867187502) translate(371.4494357638889 171.6232638888889)"/></g><path d="M2300 1196.9v88.46" stroke="#3a414a" stroke-width="3" fill="none"/><path d="M2301.47 1196.95h-2.94v-1.54h2.94z" stroke="#3a414a" stroke-width=".05" fill="#3a414a"/><path d="M2300 1301.13l-4.64-14.27h9.28z" stroke="#3a414a" stroke-width="3" fill="#3a414a"/><path d="M1385 783v159.34" stroke="#3a414a" stroke-width="3" fill="none"/><path d="M1386.47 783.04h-2.94v-1.54h2.94z" stroke="#3a414a" stroke-width=".05" fill="#3a414a"/><path d="M1385 958.1l-4.63-14.26h9.27z" stroke="#3a414a" stroke-width="3" fill="#3a414a"/><path d="M1385 783v85.2a6 6 0 0 1-6 6H341a6 6 0 0 0-6 6v77.68" stroke="#3a414a" stroke-width="3" fill="none"/><path d="M1386.47 783.04h-2.94v-1.54h2.94z" stroke="#3a414a" stroke-width=".05" fill="#3a414a"/><path d="M335 973.65l-4.63-14.27h9.26z" stroke="#3a414a" stroke-width="3" fill="#3a414a"/><path d="M1385 783v85.2a6 6 0 0 0 6 6h903a6 6 0 0 1 6 6v46.48" stroke="#3a414a" stroke-width="3" fill="none"/><path d="M1386.47 783.04h-2.94v-1.54h2.94z" stroke="#3a414a" stroke-width=".05" fill="#3a414a"/><path d="M2300 942.45l-4.64-14.27h9.28z" stroke="#3a414a" stroke-width="3" fill="#3a414a"/><path d="M-520 1381.1a6 6 0 0 1 6-6H14a6 6 0 0 1 6 6v180.06a6 6 0 0 1-6 6h-528a6 6 0 0 1-6-6z" stroke="#000" stroke-width="3" fill="#fff"/><g><use xlink:href="#f" transform="matrix(1,0,0,1,-508,1387.0864085) translate(166.30729166666666 51.26388888888889)"/><use xlink:href="#g" transform="matrix(1,0,0,1,-508,1387.0864085) translate(174.01671006944446 96.43576388888889)"/><use xlink:href="#h" transform="matrix(1,0,0,1,-508,1387.0864085) translate(268.42860243055554 96.43576388888889)"/><use xlink:href="#i" transform="matrix(1,0,0,1,-508,1387.0864085) translate(22.17534722222223 141.60763888888889)"/><use xlink:href="#j" transform="matrix(1,0,0,1,-508,1387.0864085) translate(127.5703125 141.60763888888889)"/><use xlink:href="#k" transform="matrix(1,0,0,1,-508,1387.0864085) translate(245.84722222222223 141.60763888888889)"/><use xlink:href="#l" transform="matrix(1,0,0,1,-508,1387.0864085) translate(382.56597222222223 141.60763888888889)"/></g><path d="M335 1198.1v81a6 6 0 0 1-6 6h-573a6 6 0 0 0-6 6v61.87" stroke="#3a414a" stroke-width="3" fill="none"/><path d="M336.48 1198.13h-2.96v-1.54h2.96z" stroke="#3a414a" stroke-width=".05" fill="#3a414a"/><path d="M-250 1368.73l-4.63-14.26h9.26z" stroke="#3a414a" stroke-width="3" fill="#3a414a"/><path d="M2680 954.8a6 6 0 0 1 6-6h603a6 6 0 0 1 6 6v246.5a6 6 0 0 1-6 6h-603a6 6 0 0 1-6-6z" stroke="#000" stroke-width="3" fill="#fff"/><g><use xlink:href="#af" transform="matrix(1,0,0,1,2692,960.8042719583334) translate(222.40863715277777 37.48263888888889)"/><use xlink:href="#g" transform="matrix(1,0,0,1,2692,960.8042719583334) translate(174.09375 82.6545138888889)"/><use xlink:href="#ag" transform="matrix(1,0,0,1,2692,960.8042719583334) translate(268.5056423611111 82.6545138888889)"/><use xlink:href="#aa" transform="matrix(1,0,0,1,2692,960.8042719583334) translate(60.94379340277774 127.82638888888891)"/><use xlink:href="#ah" transform="matrix(1,0,0,1,2692,960.8042719583334) translate(167.72113715277774 127.82638888888891)"/><use xlink:href="#s" transform="matrix(1,0,0,1,2692,960.8042719583334) translate(366.251953125 127.82638888888891)"/><use xlink:href="#ai" transform="matrix(1,0,0,1,2692,960.8042719583334) translate(1.9572482638888573 172.9982638888889)"/><use xlink:href="#aj" transform="matrix(1,0,0,1,2692,960.8042719583334) translate(199.91080729166666 172.9982638888889)"/><use xlink:href="#ak" transform="matrix(1,0,0,1,2692,960.8042719583334) translate(395.44900173611114 172.9982638888889)"/><use xlink:href="#al" transform="matrix(1,0,0,1,2692,960.8042719583334) translate(50.78862847222223 218.1701388888889)"/><use xlink:href="#am" transform="matrix(1,0,0,1,2692,960.8042719583334) translate(223.90494791666669 218.1701388888889)"/><use xlink:href="#M" transform="matrix(1,0,0,1,2692,960.8042719583334) translate(428.95269097222223 218.1701388888889)"/></g><path d="M3080 1306a6 6 0 0 1 6-6h468a6 6 0 0 1 6 6v203.1a6 6 0 0 1-6 6h-468a6 6 0 0 1-6-6z" stroke="#000" stroke-width="3" fill="#fff"/><g><use xlink:href="#F" transform="matrix(1,0,0,1,3092,1312) translate(178.1052517361111 42.13888888888889)"/><use xlink:href="#g" transform="matrix(1,0,0,1,3092,1312) translate(144.01671006944446 87.3107638888889)"/><use xlink:href="#G" transform="matrix(1,0,0,1,3092,1312) translate(238.42860243055557 87.3107638888889)"/><use xlink:href="#i" transform="matrix(1,0,0,1,3092,1312) translate(48.12369791666666 132.4826388888889)"/><use xlink:href="#H" transform="matrix(1,0,0,1,3092,1312) translate(153.51866319444443 132.4826388888889)"/><use xlink:href="#I" transform="matrix(1,0,0,1,3092,1312) translate(280.91015625 132.4826388888889)"/><use xlink:href="#J" transform="matrix(1,0,0,1,3092,1312) translate(47.05273437499994 177.6545138888889)"/><use xlink:href="#K" transform="matrix(1,0,0,1,3092,1312) translate(180.04969618055554 177.6545138888889)"/><use xlink:href="#L" transform="matrix(1,0,0,1,3092,1312) translate(209.38346354166666 177.6545138888889)"/><use xlink:href="#M" transform="matrix(1,0,0,1,3092,1312) translate(297.68858506944446 177.6545138888889)"/></g><path d="M2640 1306a6 6 0 0 1 6-6h368a6 6 0 0 1 6 6v185.16a6 6 0 0 1-6 6h-368a6 6 0 0 1-6-6z" stroke="#000" stroke-width="3" fill="#fff"/><g><use xlink:href="#f" transform="matrix(1,0,0,1,2652,1312) translate(86.30729166666666 35.57638888888889)"/><use xlink:href="#g" transform="matrix(1,0,0,1,2652,1312) translate(94.01671006944444 80.7482638888889)"/><use xlink:href="#h" transform="matrix(1,0,0,1,2652,1312) translate(188.42860243055554 80.7482638888889)"/><use xlink:href="#i" transform="matrix(1,0,0,1,2652,1312) translate(2.1796875 125.92013888888891)"/><use xlink:href="#j" transform="matrix(1,0,0,1,2652,1312) translate(107.57465277777777 125.92013888888891)"/><use xlink:href="#an" transform="matrix(1,0,0,1,2652,1312) translate(225.8515625 125.92013888888891)"/><use xlink:href="#l" transform="matrix(1,0,0,1,2652,1312) translate(122.37065972222221 171.0920138888889)"/></g><path d="M2987.5 1210.3v37.35a6 6 0 0 1-6 6H2836a6 6 0 0 0-6 6v18.23" stroke="#3a414a" stroke-width="3" fill="none"/><path d="M2988.97 1210.34h-2.94v-1.54h2.94z" stroke="#3a414a" stroke-width=".05" fill="#3a414a"/><path d="M2830 1293.65l-4.64-14.27h9.28z" stroke="#3a414a" stroke-width="3" fill="#3a414a"/><path d="M2987.5 1210.3v37.35a6 6 0 0 0 6 6H3314a6 6 0 0 1 6 6v18.23" stroke="#3a414a" stroke-width="3" fill="none"/><path d="M2988.97 1210.34h-2.94v-1.54h2.94z" stroke="#3a414a" stroke-width=".05" fill="#3a414a"/><path d="M3320 1293.65l-4.64-14.27h9.28z" stroke="#3a414a" stroke-width="3" fill="#3a414a"/><path d="M1385 783v83.05a6 6 0 0 0 6 6h1590.5a6 6 0 0 1 6 6v48.63" stroke="#3a414a" stroke-width="3" fill="none"/><path d="M1386.47 783.04h-2.94v-1.54h2.94z" stroke="#3a414a" stroke-width=".05" fill="#3a414a"/><path d="M2987.5 942.45l-4.64-14.27h9.28z" stroke="#3a414a" stroke-width="3" fill="#3a414a"/><path d="M1385 783v85.2a6 6 0 0 1-6 6H916a6 6 0 0 0-6 6v77.68" stroke="#3a414a" stroke-width="3" fill="none"/><path d="M1386.47 783.04h-2.94v-1.54h2.94z" stroke="#3a414a" stroke-width=".05" fill="#3a414a"/><path d="M910 973.65l-4.63-14.27h9.26z" stroke="#3a414a" stroke-width="3" fill="#3a414a"/><defs><path d="M75-1237v-253h1217v253H837V0H531v-1237H75" id="ao"/><path d="M628 22C291 22 81-210 81-554c0-346 210-578 547-578 336 0 547 232 547 578 0 344-211 576-547 576zm0-236c160 0 242-146 242-341 0-197-82-341-242-341S387-753 387-555c0 195 81 341 241 341" id="ap"/><path d="M537 19C279 19 81-185 81-557c0-382 206-575 454-575 190 0 278 113 318 202h10v-560h300V0H868v-179h-15C812-89 719 19 537 19zm92-241c153 0 240-134 240-336 0-203-86-334-240-334-158 0-240 138-240 334 0 197 84 336 240 336" id="aq"/><path d="M49 0l509-1490h400L1480 0h-339l-115-346H497L386 0H49zm524-585h374c-75-213-124-402-192-666-66 268-110 453-182 666" id="ar"/><path d="M128 418v-1536h295v188h14c41-89 129-202 319-202 248 0 453 193 453 575 0 372-197 576-455 576-183 0-275-108-317-198h-9v597H128zm534-640c156 0 240-139 240-336 0-196-83-334-240-334-154 0-241 131-241 334 0 202 88 336 241 336" id="as"/><g id="a"><use transform="matrix(0.015190972222222224,0,0,0.015190972222222224,0,0)" xlink:href="#ao"/><use transform="matrix(0.015190972222222224,0,0,0.015190972222222224,18.33550347222222,0)" xlink:href="#ap"/><use transform="matrix(0.015190972222222224,0,0,0.015190972222222224,37.415364583333336,0)" xlink:href="#aq"/><use transform="matrix(0.015190972222222224,0,0,0.015190972222222224,57.02690972222223,0)" xlink:href="#ap"/><use transform="matrix(0.015190972222222224,0,0,0.015190972222222224,75.05859375,0)" xlink:href="#ar"/><use transform="matrix(0.015190972222222224,0,0,0.015190972222222224,98.28559027777777,0)" xlink:href="#as"/><use transform="matrix(0.015190972222222224,0,0,0.015190972222222224,117.89713541666666,0)" xlink:href="#as"/></g><path d="M572 22C302 22 117-98 78-306l279-48c29 105 101 156 224 156 114 0 185-48 185-115 0-118-228-130-337-155-215-49-322-150-322-317 0-215 187-347 470-347 265 0 424 116 466 298l-266 47c-24-76-87-130-196-130-98 0-174 46-174 113 0 56 38 95 144 117l201 40c216 44 320 143 320 302 0 220-207 367-500 367" id="at"/><path d="M683-1118v229H474v562c0 71 29 104 102 104 23 0 73-7 95-13l43 225C647 9 580 16 520 16 296 16 174-96 174-301v-588H20v-229h154v-266h300v266h209" id="au"/><path d="M440 22C227 22 68-92 68-313c0-250 202-322 422-343 195-21 271-24 271-105 0-95-63-149-175-149-116 0-187 57-211 129l-275-46c57-194 237-305 487-305 240 0 474 108 474 379V0H777v-155h-10C713-51 605 22 440 22zm85-211c140 0 238-93 238-211v-121c-37 26-156 42-222 51-111 16-185 59-185 149 0 87 70 132 169 132" id="av"/><path d="M633 22C291 22 81-200 81-553c0-345 210-579 537-579 292 0 525 185 525 567v84H378c7 183 109 277 260 277 105 0 184-46 216-132l272 51C1071-99 893 22 633 22zM380-669h474c-15-146-94-237-233-237-143 0-229 99-241 237" id="aw"/><path d="M342-723c-98 0-173-75-173-172s75-172 173-172 173 75 173 172-75 172-173 172zm0 742c-98 0-173-75-173-172s75-172 173-172 173 75 173 172S440 19 342 19" id="ax"/><g id="b"><use transform="matrix(0.015190972222222224,0,0,0.015190972222222224,0,0)" xlink:href="#at"/><use transform="matrix(0.015190972222222224,0,0,0.015190972222222224,17.42404513888889,0)" xlink:href="#au"/><use transform="matrix(0.015190972222222224,0,0,0.015190972222222224,28.96918402777778,0)" xlink:href="#av"/><use transform="matrix(0.015190972222222224,0,0,0.015190972222222224,47.03125,0)" xlink:href="#au"/><use transform="matrix(0.015190972222222224,0,0,0.015190972222222224,58.12065972222223,0)" xlink:href="#aw"/><use transform="matrix(0.015190972222222224,0,0,0.015190972222222224,76.65364583333334,0)" xlink:href="#ax"/></g><path d="M338-670V0H158v-1118h173l1 207c72-158 192-221 342-221 226 0 378 139 378 422V0H872v-695c0-172-96-275-252-275-161 0-282 109-282 300" id="ay"/><path d="M613 24c-304 0-509-231-509-576 0-350 205-580 509-580 305 0 511 230 511 580 0 345-206 576-511 576zm0-161c226 0 329-195 329-415 0-222-103-419-329-419-223 0-326 196-326 419 0 220 103 415 326 415" id="az"/><path d="M628 24c-324 0-524-230-524-574 0-343 198-582 503-582 237 0 487 146 487 559v75H286c9 234 145 362 343 362 132 0 231-58 273-172l174 48C1024-91 857 24 628 24zM287-650h624c-17-190-120-322-304-322-192 0-309 151-320 322" id="aA"/><g id="c"><use transform="matrix(0.015190972222222224,0,0,0.015190972222222224,0,0)" xlink:href="#ay"/><use transform="matrix(0.015190972222222224,0,0,0.015190972222222224,18.38107638888889,0)" xlink:href="#az"/><use transform="matrix(0.015190972222222224,0,0,0.015190972222222224,37.03559027777778,0)" xlink:href="#ay"/><use transform="matrix(0.015190972222222224,0,0,0.015190972222222224,55.41666666666667,0)" xlink:href="#aA"/></g><path d="M128 0v-1118h290v195h12c54-169 184-238 367-200v268c-27-8-86-15-130-15-138 0-239 95-239 234V0H128" id="aB"/><g id="d"><use transform="matrix(0.015190972222222224,0,0,0.015190972222222224,0,0)" xlink:href="#as"/><use transform="matrix(0.015190972222222224,0,0,0.015190972222222224,19.61154513888889,0)" xlink:href="#aB"/><use transform="matrix(0.015190972222222224,0,0,0.015190972222222224,31.521267361111114,0)" xlink:href="#ap"/><use transform="matrix(0.015190972222222224,0,0,0.015190972222222224,50.60112847222223,0)" xlink:href="#as"/><use transform="matrix(0.015190972222222224,0,0,0.015190972222222224,70.21267361111111,0)" xlink:href="#at"/><use transform="matrix(0.015190972222222224,0,0,0.015190972222222224,87.63671875,0)" xlink:href="#ax"/></g><g id="e"><use transform="matrix(0.015190972222222224,0,0,0.015190972222222224,0,0)" xlink:href="#ay"/><use transform="matrix(0.015190972222222224,0,0,0.015190972222222224,18.38107638888889,0)" xlink:href="#az"/><use transform="matrix(0.015190972222222224,0,0,0.015190972222222224,37.03559027777778,0)" xlink:href="#ay"/><use transform="matrix(0.015190972222222224,0,0,0.015190972222222224,55.41666666666667,0)" xlink:href="#aA"/></g><path d="M120 396l69-226c123 42 245 23 254-107l8-60L31-1118h319c87 288 199 559 259 872 72-308 185-583 277-872h315L726 132c-68 181-186 294-410 294-79 0-153-13-196-30" id="aC"/><path d="M625 442c-280 0-454-114-503-274l258-72c28 63 97 128 243 128 153 0 246-69 246-216v-206h-23C805-108 717-16 536-16 284-16 81-191 81-561c0-378 208-571 456-571 188 0 280 113 321 202h13v-188h295V-9c0 303-226 451-541 451zm5-686c153 0 240-119 240-319 0-198-86-329-240-329-158 0-241 137-241 329 0 195 85 319 241 319" id="aD"/><path d="M428-647V0H128v-1490h294v586c65-146 175-228 341-228 232 0 385 159 385 421V0H847v-659c0-139-76-222-202-222-128 0-217 86-217 234" id="aE"/><g id="f"><use transform="matrix(0.015190972222222224,0,0,0.015190972222222224,0,0)" xlink:href="#ao"/><use transform="matrix(0.015190972222222224,0,0,0.015190972222222224,18.821614583333336,0)" xlink:href="#aC"/><use transform="matrix(0.015190972222222224,0,0,0.015190972222222224,37.55208333333334,0)" xlink:href="#as"/><use transform="matrix(0.015190972222222224,0,0,0.015190972222222224,57.16362847222223,0)" xlink:href="#ap"/><use transform="matrix(0.015190972222222224,0,0,0.015190972222222224,76.24348958333334,0)" xlink:href="#aD"/><use transform="matrix(0.015190972222222224,0,0,0.015190972222222224,95.9006076388889,0)" xlink:href="#aB"/><use transform="matrix(0.015190972222222224,0,0,0.015190972222222224,108.14453125,0)" xlink:href="#av"/><use transform="matrix(0.015190972222222224,0,0,0.015190972222222224,126.20659722222223,0)" xlink:href="#as"/><use transform="matrix(0.015190972222222224,0,0,0.015190972222222224,145.81814236111111,0)" xlink:href="#aE"/><use transform="matrix(0.015190972222222224,0,0,0.015190972222222224,164.65494791666669,0)" xlink:href="#aC"/></g><g id="g"><use transform="matrix(0.015190972222222224,0,0,0.015190972222222224,0,0)" xlink:href="#at"/><use transform="matrix(0.015190972222222224,0,0,0.015190972222222224,17.42404513888889,0)" xlink:href="#au"/><use transform="matrix(0.015190972222222224,0,0,0.015190972222222224,28.96918402777778,0)" xlink:href="#av"/><use transform="matrix(0.015190972222222224,0,0,0.015190972222222224,47.03125,0)" xlink:href="#au"/><use transform="matrix(0.015190972222222224,0,0,0.015190972222222224,58.12065972222223,0)" xlink:href="#aw"/><use transform="matrix(0.015190972222222224,0,0,0.015190972222222224,76.65364583333334,0)" xlink:href="#ax"/></g><g id="h"><use transform="matrix(0.015190972222222224,0,0,0.015190972222222224,0,0)" xlink:href="#ay"/><use transform="matrix(0.015190972222222224,0,0,0.015190972222222224,18.38107638888889,0)" xlink:href="#az"/><use transform="matrix(0.015190972222222224,0,0,0.015190972222222224,37.03559027777778,0)" xlink:href="#ay"/><use transform="matrix(0.015190972222222224,0,0,0.015190972222222224,55.41666666666667,0)" xlink:href="#aA"/></g><g id="i"><use transform="matrix(0.015190972222222224,0,0,0.015190972222222224,0,0)" xlink:href="#as"/><use transform="matrix(0.015190972222222224,0,0,0.015190972222222224,19.61154513888889,0)" xlink:href="#aB"/><use transform="matrix(0.015190972222222224,0,0,0.015190972222222224,31.521267361111114,0)" xlink:href="#ap"/><use transform="matrix(0.015190972222222224,0,0,0.015190972222222224,50.60112847222223,0)" xlink:href="#as"/><use transform="matrix(0.015190972222222224,0,0,0.015190972222222224,70.21267361111111,0)" xlink:href="#at"/><use transform="matrix(0.015190972222222224,0,0,0.015190972222222224,87.63671875,0)" xlink:href="#ax"/></g><path d="M481 0L54-1118h197c107 314 236 620 325 951 87-331 217-637 324-951h197L670 0H481" id="aF"/><path d="M471 26C259 26 90-98 90-318c0-256 228-303 435-329 202-27 287-16 287-108 0-139-79-219-234-219-161 0-248 86-283 164l-173-57c86-203 278-265 451-265 150 0 419 46 419 395V0H815v-152h-12C765-73 660 26 471 26zm31-159c199 0 310-134 310-271v-155c-30 35-226 55-295 64-131 17-246 59-246 186 0 116 97 176 231 176" id="aG"/><path d="M158 0v-1118h174v172h12c41-113 157-188 290-188 26 0 70 2 91 3v181c-11-2-60-10-108-10-161 0-279 109-279 260V0H158" id="aH"/><path d="M158 0v-1118h180V0H158zm91-1301c-68 0-125-53-125-119s57-119 125-119c69 0 126 53 126 119s-57 119-126 119" id="aI"/><path d="M598-1118v154H368v674c0 100 37 144 132 144 23 0 62-6 92-12L629-6c-37 13-88 20-134 20-193 0-307-107-307-290v-688H20v-154h168v-266h180v266h230" id="aJ"/><path d="M128 359l88-567h206L266 359H128" id="aK"/><g id="j"><use transform="matrix(0.015190972222222224,0,0,0.015190972222222224,0,0)" xlink:href="#aF"/><use transform="matrix(0.015190972222222224,0,0,0.015190972222222224,17.332899305555557,0)" xlink:href="#aG"/><use transform="matrix(0.015190972222222224,0,0,0.015190972222222224,34.802517361111114,0)" xlink:href="#aH"/><use transform="matrix(0.015190972222222224,0,0,0.015190972222222224,47.000868055555564,0)" xlink:href="#aI"/><use transform="matrix(0.015190972222222224,0,0,0.015190972222222224,54.535590277777786,0)" xlink:href="#aG"/><use transform="matrix(0.015190972222222224,0,0,0.015190972222222224,72.00520833333334,0)" xlink:href="#ay"/><use transform="matrix(0.015190972222222224,0,0,0.015190972222222224,90.38628472222223,0)" xlink:href="#aJ"/><use transform="matrix(0.015190972222222224,0,0,0.015190972222222224,100.56423611111111,0)" xlink:href="#aK"/></g><path d="M613 24c-304 0-509-231-509-576 0-350 205-580 509-580 216 0 392 114 453 309l-173 49c-33-115-133-197-280-197-223 0-326 196-326 419 0 220 103 415 326 415 150 0 252-85 285-206l172 49C1010-95 832 24 613 24" id="aL"/><path d="M338-670V0H158v-1490h180v566c73-149 190-208 336-208 226 0 379 139 379 422V0H872v-695c0-172-96-275-252-275-161 0-282 109-282 300" id="aM"/><path d="M338-1490V0H158v-1490h180" id="aN"/><path d="M577 24c-279 0-473-224-473-580 0-354 195-576 474-576 218 0 287 134 324 193h14v-551h180V0H922v-173h-20C865-111 790 24 577 24zm27-161c203 0 314-172 314-421 0-247-108-413-314-413-212 0-317 181-317 413 0 235 108 421 317 421" id="aO"/><g id="k"><use transform="matrix(0.015190972222222224,0,0,0.015190972222222224,0,0)" xlink:href="#aL"/><use transform="matrix(0.015190972222222224,0,0,0.015190972222222224,17.773437500000004,0)" xlink:href="#aM"/><use transform="matrix(0.015190972222222224,0,0,0.015190972222222224,36.169704861111114,0)" xlink:href="#aI"/><use transform="matrix(0.015190972222222224,0,0,0.015190972222222224,43.704427083333336,0)" xlink:href="#aN"/><use transform="matrix(0.015190972222222224,0,0,0.015190972222222224,51.23914930555556,0)" xlink:href="#aO"/><use transform="matrix(0.015190972222222224,0,0,0.015190972222222224,70.28862847222223,0)" xlink:href="#aA"/><use transform="matrix(0.015190972222222224,0,0,0.015190972222222224,88.42664930555557,0)" xlink:href="#aH"/><use transform="matrix(0.015190972222222224,0,0,0.015190972222222224,100.62500000000001,0)" xlink:href="#ay"/><use transform="matrix(0.015190972222222224,0,0,0.015190972222222224,119.0060763888889,0)" xlink:href="#aK"/></g><path d="M295 13c-75 0-135-60-135-135s60-135 135-135 135 60 135 135S370 13 295 13" id="aP"/><path d="M158 418v-1536h174v179h20c37-59 106-193 324-193 279 0 474 222 474 576 0 356-194 580-473 580-213 0-288-135-325-197h-14v591H158zm492-555c209 0 317-186 317-421 0-232-105-413-317-413-206 0-314 166-314 413 0 249 111 421 314 421" id="aQ"/><path d="M538 24C308 24 148-78 108-271l171-41c32 123 123 178 257 178 156 0 256-77 256-169 0-77-54-128-164-154l-186-44c-203-48-300-148-300-305 0-192 176-326 414-326 230 0 351 112 402 269l-163 42c-31-80-94-158-238-158-133 0-233 69-233 162 0 83 57 129 188 160l169 40c203 48 298 149 298 302 0 196-179 339-441 339" id="aR"/><g id="l"><use transform="matrix(0.015190972222222224,0,0,0.015190972222222224,0,0)" xlink:href="#aP"/><use transform="matrix(0.015190972222222224,0,0,0.015190972222222224,8.962673611111112,0)" xlink:href="#aP"/><use transform="matrix(0.015190972222222224,0,0,0.015190972222222224,17.925347222222225,0)" xlink:href="#aP"/><use transform="matrix(0.015190972222222224,0,0,0.015190972222222224,26.888020833333336,0)" xlink:href="#aQ"/><use transform="matrix(0.015190972222222224,0,0,0.015190972222222224,45.9375,0)" xlink:href="#aH"/><use transform="matrix(0.015190972222222224,0,0,0.015190972222222224,57.13324652777778,0)" xlink:href="#az"/><use transform="matrix(0.015190972222222224,0,0,0.015190972222222224,75.78776041666667,0)" xlink:href="#aQ"/><use transform="matrix(0.015190972222222224,0,0,0.015190972222222224,94.83723958333334,0)" xlink:href="#aR"/></g><path d="M135 0v-1490h305v1237h643V0H135" id="aS"/><path d="M128 0v-1118h300V0H128zm150-1264c-91 0-165-68-165-154 0-85 74-154 165-154 90 0 165 69 165 154 0 86-75 154-165 154" id="aT"/><g id="m"><use transform="matrix(0.015190972222222224,0,0,0.015190972222222224,0,0)" xlink:href="#ao"/><use transform="matrix(0.015190972222222224,0,0,0.015190972222222224,18.33550347222222,0)" xlink:href="#ap"/><use transform="matrix(0.015190972222222224,0,0,0.015190972222222224,37.415364583333336,0)" xlink:href="#aq"/><use transform="matrix(0.015190972222222224,0,0,0.015190972222222224,57.02690972222223,0)" xlink:href="#ap"/><use transform="matrix(0.015190972222222224,0,0,0.015190972222222224,76.10677083333334,0)" xlink:href="#aS"/><use transform="matrix(0.015190972222222224,0,0,0.015190972222222224,93.69791666666669,0)" xlink:href="#aT"/><use transform="matrix(0.015190972222222224,0,0,0.015190972222222224,102.12890625000001,0)" xlink:href="#at"/><use transform="matrix(0.015190972222222224,0,0,0.015190972222222224,119.5529513888889,0)" xlink:href="#au"/></g><g id="n"><use transform="matrix(0.015190972222222224,0,0,0.015190972222222224,0,0)" xlink:href="#at"/><use transform="matrix(0.015190972222222224,0,0,0.015190972222222224,17.42404513888889,0)" xlink:href="#au"/><use transform="matrix(0.015190972222222224,0,0,0.015190972222222224,28.96918402777778,0)" xlink:href="#av"/><use transform="matrix(0.015190972222222224,0,0,0.015190972222222224,47.03125,0)" xlink:href="#au"/><use transform="matrix(0.015190972222222224,0,0,0.015190972222222224,58.12065972222223,0)" xlink:href="#aw"/><use transform="matrix(0.015190972222222224,0,0,0.015190972222222224,76.65364583333334,0)" xlink:href="#ax"/></g><g id="o"><use transform="matrix(0.015190972222222224,0,0,0.015190972222222224,0,0)" xlink:href="#aJ"/><use transform="matrix(0.015190972222222224,0,0,0.015190972222222224,9.874131944444445,0)" xlink:href="#az"/><use transform="matrix(0.015190972222222224,0,0,0.015190972222222224,28.528645833333336,0)" xlink:href="#aO"/><use transform="matrix(0.015190972222222224,0,0,0.015190972222222224,47.578125,0)" xlink:href="#az"/><use transform="matrix(0.015190972222222224,0,0,0.015190972222222224,66.23263888888889,0)" xlink:href="#aR"/><use transform="matrix(0.015190972222222224,0,0,0.015190972222222224,82.65407986111111,0)" xlink:href="#aK"/></g><path d="M370-1490V0H180v-1490h190" id="aU"/><path d="M180 0v-1490h190v1322h690V0H180" id="aV"/><path d="M611 442c-248 0-391-105-460-228l146-94c47 65 117 165 314 165 178 0 307-82 307-266v-224h-17C863-141 792-18 576-18c-268 0-472-195-472-546 0-346 197-568 476-568 216 0 288 133 326 193h17v-179h175V29c0 289-215 413-487 413zm-5-620c203 0 314-146 314-390 0-237-108-403-314-403-213 0-319 180-319 403 0 230 109 390 319 390" id="aW"/><g id="p"><use transform="matrix(0.015190972222222224,0,0,0.015190972222222224,0,0)" xlink:href="#aU"/><use transform="matrix(0.015190972222222224,0,0,0.015190972222222224,8.355034722222223,0)" xlink:href="#aR"/><use transform="matrix(0.015190972222222224,0,0,0.015190972222222224,24.77647569444445,0)" xlink:href="#aV"/><use transform="matrix(0.015190972222222224,0,0,0.015190972222222224,42.367621527777786,0)" xlink:href="#az"/><use transform="matrix(0.015190972222222224,0,0,0.015190972222222224,61.325954861111114,0)" xlink:href="#aG"/><use transform="matrix(0.015190972222222224,0,0,0.015190972222222224,78.79557291666667,0)" xlink:href="#aO"/><use transform="matrix(0.015190972222222224,0,0,0.015190972222222224,97.84505208333334,0)" xlink:href="#aI"/><use transform="matrix(0.015190972222222224,0,0,0.015190972222222224,105.37977430555557,0)" xlink:href="#ay"/><use transform="matrix(0.015190972222222224,0,0,0.015190972222222224,123.76085069444446,0)" xlink:href="#aW"/><use transform="matrix(0.015190972222222224,0,0,0.015190972222222224,142.84071180555557,0)" xlink:href="#aK"/></g><g id="q"><use transform="matrix(0.015190972222222224,0,0,0.015190972222222224,0,0)" xlink:href="#aA"/><use transform="matrix(0.015190972222222224,0,0,0.015190972222222224,18.138020833333336,0)" xlink:href="#aH"/><use transform="matrix(0.015190972222222224,0,0,0.015190972222222224,30.33637152777778,0)" xlink:href="#aH"/><use transform="matrix(0.015190972222222224,0,0,0.015190972222222224,41.53211805555556,0)" xlink:href="#az"/><use transform="matrix(0.015190972222222224,0,0,0.015190972222222224,60.18663194444444,0)" xlink:href="#aH"/><use transform="matrix(0.015190972222222224,0,0,0.015190972222222224,69.95442708333333,0)" xlink:href="#aK"/></g><path d="M537 14c-226 0-379-139-379-422v-710h180v695c0 172 97 275 253 275 160 0 281-109 281-300v-670h181V0H879v-209C806-46 684 14 537 14" id="aX"/><path d="M180 0v-1490h510c348 0 508 209 508 474 0 266-160 477-507 477H370V0H180zm190-706h312c236 0 327-133 327-310 0-176-91-307-329-307H370v617" id="aY"/><g id="r"><use transform="matrix(0.015190972222222224,0,0,0.015190972222222224,0,0)" xlink:href="#aL"/><use transform="matrix(0.015190972222222224,0,0,0.015190972222222224,17.773437500000004,0)" xlink:href="#aX"/><use transform="matrix(0.015190972222222224,0,0,0.015190972222222224,36.169704861111114,0)" xlink:href="#aH"/><use transform="matrix(0.015190972222222224,0,0,0.015190972222222224,48.368055555555564,0)" xlink:href="#aH"/><use transform="matrix(0.015190972222222224,0,0,0.015190972222222224,59.56380208333334,0)" xlink:href="#aA"/><use transform="matrix(0.015190972222222224,0,0,0.015190972222222224,77.70182291666669,0)" xlink:href="#ay"/><use transform="matrix(0.015190972222222224,0,0,0.015190972222222224,96.08289930555557,0)" xlink:href="#aJ"/><use transform="matrix(0.015190972222222224,0,0,0.015190972222222224,106.26085069444446,0)" xlink:href="#aY"/><use transform="matrix(0.015190972222222224,0,0,0.015190972222222224,126.13064236111113,0)" xlink:href="#aG"/><use transform="matrix(0.015190972222222224,0,0,0.015190972222222224,143.60026041666669,0)" xlink:href="#aW"/><use transform="matrix(0.015190972222222224,0,0,0.015190972222222224,162.6801215277778,0)" xlink:href="#aA"/><use transform="matrix(0.015190972222222224,0,0,0.015190972222222224,180.81814236111114,0)" xlink:href="#aK"/></g><g id="s"><use transform="matrix(0.015190972222222224,0,0,0.015190972222222224,0,0)" xlink:href="#aJ"/><use transform="matrix(0.015190972222222224,0,0,0.015190972222222224,9.874131944444445,0)" xlink:href="#az"/><use transform="matrix(0.015190972222222224,0,0,0.015190972222222224,28.528645833333336,0)" xlink:href="#aJ"/><use transform="matrix(0.015190972222222224,0,0,0.015190972222222224,38.85850694444444,0)" xlink:href="#aG"/><use transform="matrix(0.015190972222222224,0,0,0.015190972222222224,56.328125,0)" xlink:href="#aN"/><use transform="matrix(0.015190972222222224,0,0,0.015190972222222224,63.862847222222214,0)" xlink:href="#aY"/><use transform="matrix(0.015190972222222224,0,0,0.015190972222222224,83.73263888888889,0)" xlink:href="#aG"/><use transform="matrix(0.015190972222222224,0,0,0.015190972222222224,101.20225694444444,0)" xlink:href="#aW"/><use transform="matrix(0.015190972222222224,0,0,0.015190972222222224,120.28211805555556,0)" xlink:href="#aA"/><use transform="matrix(0.015190972222222224,0,0,0.015190972222222224,138.42013888888889,0)" xlink:href="#aR"/><use transform="matrix(0.015190972222222224,0,0,0.015190972222222224,154.84157986111111,0)" xlink:href="#aK"/></g><path d="M158 0v-1118h175l1 205c55-151 181-225 313-225 147 0 245 90 285 228 53-141 190-228 352-228 194 0 352 125 352 384V0h-181v-749c0-161-105-225-225-225-151 0-243 103-243 244V0H807v-767c0-124-93-207-219-207-131 0-250 92-250 270V0H158" id="aZ"/><g id="t"><use transform="matrix(0.015190972222222224,0,0,0.015190972222222224,0,0)" xlink:href="#aN"/><use transform="matrix(0.015190972222222224,0,0,0.015190972222222224,7.534722222222223,0)" xlink:href="#aI"/><use transform="matrix(0.015190972222222224,0,0,0.015190972222222224,15.069444444444446,0)" xlink:href="#aZ"/><use transform="matrix(0.015190972222222224,0,0,0.015190972222222224,42.322048611111114,0)" xlink:href="#aI"/><use transform="matrix(0.015190972222222224,0,0,0.015190972222222224,49.856770833333336,0)" xlink:href="#aJ"/><use transform="matrix(0.015190972222222224,0,0,0.015190972222222224,60.03472222222223,0)" xlink:href="#aY"/><use transform="matrix(0.015190972222222224,0,0,0.015190972222222224,79.73741319444446,0)" xlink:href="#aA"/><use transform="matrix(0.015190972222222224,0,0,0.015190972222222224,97.8754340277778,0)" xlink:href="#aH"/><use transform="matrix(0.015190972222222224,0,0,0.015190972222222224,110.07378472222224,0)" xlink:href="#aY"/><use transform="matrix(0.015190972222222224,0,0,0.015190972222222224,129.9435763888889,0)" xlink:href="#aG"/><use transform="matrix(0.015190972222222224,0,0,0.015190972222222224,147.41319444444446,0)" xlink:href="#aW"/><use transform="matrix(0.015190972222222224,0,0,0.015190972222222224,166.49305555555557,0)" xlink:href="#aA"/><use transform="matrix(0.015190972222222224,0,0,0.015190972222222224,184.6310763888889,0)" xlink:href="#aK"/></g><path d="M98-1322v-168h1126v168H757V0H567v-1322H98" id="ba"/><g id="u"><use transform="matrix(0.015190972222222224,0,0,0.015190972222222224,0,0)" xlink:href="#aR"/><use transform="matrix(0.015190972222222224,0,0,0.015190972222222224,16.421440972222225,0)" xlink:href="#aA"/><use transform="matrix(0.015190972222222224,0,0,0.015190972222222224,34.86328125,0)" xlink:href="#aG"/><use transform="matrix(0.015190972222222224,0,0,0.015190972222222224,52.33289930555556,0)" xlink:href="#aH"/><use transform="matrix(0.015190972222222224,0,0,0.015190972222222224,63.52864583333334,0)" xlink:href="#aL"/><use transform="matrix(0.015190972222222224,0,0,0.015190972222222224,81.30208333333334,0)" xlink:href="#aM"/><use transform="matrix(0.015190972222222224,0,0,0.015190972222222224,97.57161458333334,0)" xlink:href="#ba"/><use transform="matrix(0.015190972222222224,0,0,0.015190972222222224,115.22352430555557,0)" xlink:href="#aA"/><use transform="matrix(0.015190972222222224,0,0,0.015190972222222224,133.3615451388889,0)" xlink:href="#aH"/><use transform="matrix(0.015190972222222224,0,0,0.015190972222222224,145.55989583333337,0)" xlink:href="#aZ"/></g><path d="M440-1490V0H135v-1490h305" id="bb"/><path d="M128 0v-1118h278l12 217c60-163 185-234 319-234 143 0 236 81 288 251 63-172 205-251 359-251 205 0 357 138 357 381V0h-301v-697c0-126-76-187-177-187-114 0-184 79-184 196V0H789v-705c0-109-72-179-174-179-106 0-187 74-187 208V0H128" id="bc"/><g id="v"><use transform="matrix(0.015190972222222224,0,0,0.015190972222222224,0,0)" xlink:href="#ao"/><use transform="matrix(0.015190972222222224,0,0,0.015190972222222224,18.33550347222222,0)" xlink:href="#ap"/><use transform="matrix(0.015190972222222224,0,0,0.015190972222222224,37.415364583333336,0)" xlink:href="#aq"/><use transform="matrix(0.015190972222222224,0,0,0.015190972222222224,57.02690972222223,0)" xlink:href="#ap"/><use transform="matrix(0.015190972222222224,0,0,0.015190972222222224,76.10677083333334,0)" xlink:href="#bb"/><use transform="matrix(0.015190972222222224,0,0,0.015190972222222224,85.2973090277778,0)" xlink:href="#au"/><use transform="matrix(0.015190972222222224,0,0,0.015190972222222224,96.38671875000003,0)" xlink:href="#aw"/><use transform="matrix(0.015190972222222224,0,0,0.015190972222222224,114.91970486111114,0)" xlink:href="#bc"/></g><path d="M65 0l393-574-370-544h210c88 136 192 297 267 435 67-142 176-302 264-435h206L661-564 1053 0H844c-94-144-206-310-287-458C484-308 366-142 273 0H65" id="bd"/><g id="w"><use transform="matrix(0.015190972222222224,0,0,0.015190972222222224,0,0)" xlink:href="#aA"/><use transform="matrix(0.015190972222222224,0,0,0.015190972222222224,18.138020833333336,0)" xlink:href="#aO"/><use transform="matrix(0.015190972222222224,0,0,0.015190972222222224,37.1875,0)" xlink:href="#aI"/><use transform="matrix(0.015190972222222224,0,0,0.015190972222222224,44.72222222222222,0)" xlink:href="#aJ"/><use transform="matrix(0.015190972222222224,0,0,0.015190972222222224,53.85199652777777,0)" xlink:href="#ba"/><use transform="matrix(0.015190972222222224,0,0,0.015190972222222224,71.50390625,0)" xlink:href="#aA"/><use transform="matrix(0.015190972222222224,0,0,0.015190972222222224,88.94314236111111,0)" xlink:href="#bd"/><use transform="matrix(0.015190972222222224,0,0,0.015190972222222224,106.53428819444444,0)" xlink:href="#aJ"/><use transform="matrix(0.015190972222222224,0,0,0.015190972222222224,116.71223958333333,0)" xlink:href="#aK"/></g><path d="M180 0v-1490h908v168H370v486h669v168H370v500h727V0H180" id="be"/><g id="x"><use transform="matrix(0.015190972222222224,0,0,0.015190972222222224,0,0)" xlink:href="#aI"/><use transform="matrix(0.015190972222222224,0,0,0.015190972222222224,7.534722222222223,0)" xlink:href="#aR"/><use transform="matrix(0.015190972222222224,0,0,0.015190972222222224,23.95616319444445,0)" xlink:href="#be"/><use transform="matrix(0.015190972222222224,0,0,0.015190972222222224,42.65625000000001,0)" xlink:href="#aO"/><use transform="matrix(0.015190972222222224,0,0,0.015190972222222224,61.70572916666667,0)" xlink:href="#aI"/><use transform="matrix(0.015190972222222224,0,0,0.015190972222222224,69.2404513888889,0)" xlink:href="#aJ"/><use transform="matrix(0.015190972222222224,0,0,0.015190972222222224,79.41840277777779,0)" xlink:href="#aI"/><use transform="matrix(0.015190972222222224,0,0,0.015190972222222224,86.95312500000001,0)" xlink:href="#ay"/><use transform="matrix(0.015190972222222224,0,0,0.015190972222222224,105.3342013888889,0)" xlink:href="#aW"/></g><g id="y"><use transform="matrix(0.015190972222222224,0,0,0.015190972222222224,0,0)" xlink:href="#aJ"/><use transform="matrix(0.015190972222222224,0,0,0.015190972222222224,9.874131944444445,0)" xlink:href="#az"/><use transform="matrix(0.015190972222222224,0,0,0.015190972222222224,28.528645833333336,0)" xlink:href="#aO"/><use transform="matrix(0.015190972222222224,0,0,0.015190972222222224,47.578125,0)" xlink:href="#az"/><use transform="matrix(0.015190972222222224,0,0,0.015190972222222224,66.23263888888889,0)" xlink:href="#aK"/></g><path d="M645 0H180v-1490h484c435 0 692 280 692 742 0 466-257 748-711 748zM370-168h263c363 0 539-218 539-580 0-358-176-574-521-574H370v1154" id="bf"/><g id="z"><use transform="matrix(0.015190972222222224,0,0,0.015190972222222224,0,0)" xlink:href="#az"/><use transform="matrix(0.015190972222222224,0,0,0.015190972222222224,18.65451388888889,0)" xlink:href="#ay"/><use transform="matrix(0.015190972222222224,0,0,0.015190972222222224,37.03559027777778,0)" xlink:href="#bf"/><use transform="matrix(0.015190972222222224,0,0,0.015190972222222224,59.48784722222223,0)" xlink:href="#aA"/><use transform="matrix(0.015190972222222224,0,0,0.015190972222222224,77.62586805555557,0)" xlink:href="#aN"/><use transform="matrix(0.015190972222222224,0,0,0.015190972222222224,85.1605902777778,0)" xlink:href="#aA"/><use transform="matrix(0.015190972222222224,0,0,0.015190972222222224,103.29861111111114,0)" xlink:href="#aJ"/><use transform="matrix(0.015190972222222224,0,0,0.015190972222222224,113.17274305555559,0)" xlink:href="#aA"/><use transform="matrix(0.015190972222222224,0,0,0.015190972222222224,131.3107638888889,0)" xlink:href="#aK"/></g><path d="M763 24c-353 0-583-224-583-531v-983h190v968c0 214 149 370 393 370 243 0 391-156 391-370v-968h190v983c0 307-230 531-581 531" id="bg"/><g id="A"><use transform="matrix(0.015190972222222224,0,0,0.015190972222222224,0,0)" xlink:href="#az"/><use transform="matrix(0.015190972222222224,0,0,0.015190972222222224,18.65451388888889,0)" xlink:href="#ay"/><use transform="matrix(0.015190972222222224,0,0,0.015190972222222224,37.03559027777778,0)" xlink:href="#bg"/><use transform="matrix(0.015190972222222224,0,0,0.015190972222222224,60.18663194444444,0)" xlink:href="#aQ"/><use transform="matrix(0.015190972222222224,0,0,0.015190972222222224,79.23611111111111,0)" xlink:href="#aO"/><use transform="matrix(0.015190972222222224,0,0,0.015190972222222224,98.28559027777779,0)" xlink:href="#aG"/><use transform="matrix(0.015190972222222224,0,0,0.015190972222222224,115.75520833333334,0)" xlink:href="#aJ"/><use transform="matrix(0.015190972222222224,0,0,0.015190972222222224,125.62934027777779,0)" xlink:href="#aA"/><use transform="matrix(0.015190972222222224,0,0,0.015190972222222224,143.76736111111111,0)" xlink:href="#aK"/></g><g id="B"><use transform="matrix(0.015190972222222224,0,0,0.015190972222222224,0,0)" xlink:href="#az"/><use transform="matrix(0.015190972222222224,0,0,0.015190972222222224,18.65451388888889,0)" xlink:href="#ay"/><use transform="matrix(0.015190972222222224,0,0,0.015190972222222224,37.03559027777778,0)" xlink:href="#be"/><use transform="matrix(0.015190972222222224,0,0,0.015190972222222224,55.735677083333336,0)" xlink:href="#aO"/><use transform="matrix(0.015190972222222224,0,0,0.015190972222222224,74.78515625,0)" xlink:href="#aI"/><use transform="matrix(0.015190972222222224,0,0,0.015190972222222224,82.31987847222223,0)" xlink:href="#aJ"/></g><path d="M135 0v-1490h980v253H440v416h609v249H440V0H135" id="bh"/><g id="C"><use transform="matrix(0.015190972222222224,0,0,0.015190972222222224,0,0)" xlink:href="#ar"/><use transform="matrix(0.015190972222222224,0,0,0.015190972222222224,22.513020833333336,0)" xlink:href="#aq"/><use transform="matrix(0.015190972222222224,0,0,0.015190972222222224,42.12456597222223,0)" xlink:href="#aq"/><use transform="matrix(0.015190972222222224,0,0,0.015190972222222224,61.736111111111114,0)" xlink:href="#ao"/><use transform="matrix(0.015190972222222224,0,0,0.015190972222222224,80.07161458333334,0)" xlink:href="#ap"/><use transform="matrix(0.015190972222222224,0,0,0.015190972222222224,99.15147569444446,0)" xlink:href="#aq"/><use transform="matrix(0.015190972222222224,0,0,0.015190972222222224,118.76302083333334,0)" xlink:href="#ap"/><use transform="matrix(0.015190972222222224,0,0,0.015190972222222224,137.84288194444446,0)" xlink:href="#bh"/><use transform="matrix(0.015190972222222224,0,0,0.015190972222222224,155.20616319444446,0)" xlink:href="#ap"/><use transform="matrix(0.015190972222222224,0,0,0.015190972222222224,174.28602430555557,0)" xlink:href="#aB"/><use transform="matrix(0.015190972222222224,0,0,0.015190972222222224,187.18315972222226,0)" xlink:href="#bc"/></g><g id="D"><use transform="matrix(0.015190972222222224,0,0,0.015190972222222224,0,0)" xlink:href="#aJ"/><use transform="matrix(0.015190972222222224,0,0,0.015190972222222224,9.874131944444445,0)" xlink:href="#aA"/><use transform="matrix(0.015190972222222224,0,0,0.015190972222222224,27.313368055555557,0)" xlink:href="#bd"/><use transform="matrix(0.015190972222222224,0,0,0.015190972222222224,44.90451388888889,0)" xlink:href="#aJ"/></g><path d="M52 0l541-1490h220L1361 0h-200l-149-416H398L254 0H52zm404-582h497c-103-290-145-390-251-756-108 377-145 460-246 756" id="bi"/><g id="E"><use transform="matrix(0.015190972222222224,0,0,0.015190972222222224,0,0)" xlink:href="#az"/><use transform="matrix(0.015190972222222224,0,0,0.015190972222222224,18.65451388888889,0)" xlink:href="#ay"/><use transform="matrix(0.015190972222222224,0,0,0.015190972222222224,37.03559027777778,0)" xlink:href="#bi"/><use transform="matrix(0.015190972222222224,0,0,0.015190972222222224,58.500434027777786,0)" xlink:href="#aO"/><use transform="matrix(0.015190972222222224,0,0,0.015190972222222224,77.54991319444446,0)" xlink:href="#aO"/><use transform="matrix(0.015190972222222224,0,0,0.015190972222222224,96.59939236111113,0)" xlink:href="#ba"/><use transform="matrix(0.015190972222222224,0,0,0.015190972222222224,114.25130208333334,0)" xlink:href="#az"/><use transform="matrix(0.015190972222222224,0,0,0.015190972222222224,132.90581597222223,0)" xlink:href="#aO"/><use transform="matrix(0.015190972222222224,0,0,0.015190972222222224,151.95529513888889,0)" xlink:href="#az"/></g><path d="M135 0v-1490h591c327 0 492 160 492 383 0 177-115 286-268 320v15c168 8 326 140 326 361 0 236-176 411-512 411H135zm305-251h264c179 0 258-76 258-189 0-125-97-215-250-215H440v404zm0-613h241c131 0 228-74 228-194 0-109-79-183-222-183H440v377" id="bj"/><path d="M513 14c-232 0-385-159-385-421v-711h300v659c0 139 76 222 202 222 127 0 217-86 217-234v-647h301V0H864l-4-232C797-74 683 14 513 14" id="bk"/><path d="M428-647V0H128v-1118h283l4 231c63-156 176-245 348-245 232 0 384 159 384 421V0H847v-659c0-139-76-222-202-222-128 0-217 86-217 234" id="bl"/><g id="F"><use transform="matrix(0.015190972222222224,0,0,0.015190972222222224,0,0)" xlink:href="#bj"/><use transform="matrix(0.015190972222222224,0,0,0.015190972222222224,20.583767361111114,0)" xlink:href="#bk"/><use transform="matrix(0.015190972222222224,0,0,0.015190972222222224,39.95225694444445,0)" xlink:href="#au"/><use transform="matrix(0.015190972222222224,0,0,0.015190972222222224,50.251736111111114,0)" xlink:href="#au"/><use transform="matrix(0.015190972222222224,0,0,0.015190972222222224,61.34114583333334,0)" xlink:href="#ap"/><use transform="matrix(0.015190972222222224,0,0,0.015190972222222224,80.42100694444446,0)" xlink:href="#bl"/></g><g id="G"><use transform="matrix(0.015190972222222224,0,0,0.015190972222222224,0,0)" xlink:href="#ay"/><use transform="matrix(0.015190972222222224,0,0,0.015190972222222224,18.38107638888889,0)" xlink:href="#az"/><use transform="matrix(0.015190972222222224,0,0,0.015190972222222224,37.03559027777778,0)" xlink:href="#ay"/><use transform="matrix(0.015190972222222224,0,0,0.015190972222222224,55.41666666666667,0)" xlink:href="#aA"/></g><path d="M783 20c-382 0-661-292-661-764 0-473 279-766 661-766 302 0 548 182 601 489h-190c-42-204-217-313-411-313-268 0-476 208-476 590 0 381 209 588 476 588 195 0 369-110 411-313h190c-52 303-296 489-601 489" id="bm"/><path d="M158 0v-1490h180v865h22l478-493h223L593-638 1096 0H865L456-523 338-412V0H158" id="bn"/><g id="H"><use transform="matrix(0.015190972222222224,0,0,0.015190972222222224,0,0)" xlink:href="#az"/><use transform="matrix(0.015190972222222224,0,0,0.015190972222222224,18.65451388888889,0)" xlink:href="#ay"/><use transform="matrix(0.015190972222222224,0,0,0.015190972222222224,37.03559027777778,0)" xlink:href="#bm"/><use transform="matrix(0.015190972222222224,0,0,0.015190972222222224,59.76128472222223,0)" xlink:href="#aN"/><use transform="matrix(0.015190972222222224,0,0,0.015190972222222224,67.29600694444446,0)" xlink:href="#aI"/><use transform="matrix(0.015190972222222224,0,0,0.015190972222222224,74.83072916666669,0)" xlink:href="#aL"/><use transform="matrix(0.015190972222222224,0,0,0.015190972222222224,92.60416666666669,0)" xlink:href="#bn"/><use transform="matrix(0.015190972222222224,0,0,0.015190972222222224,109.67881944444446,0)" xlink:href="#aK"/></g><g id="I"><use transform="matrix(0.015190972222222224,0,0,0.015190972222222224,0,0)" xlink:href="#aL"/><use transform="matrix(0.015190972222222224,0,0,0.015190972222222224,17.773437500000004,0)" xlink:href="#aM"/><use transform="matrix(0.015190972222222224,0,0,0.015190972222222224,36.169704861111114,0)" xlink:href="#aI"/><use transform="matrix(0.015190972222222224,0,0,0.015190972222222224,43.704427083333336,0)" xlink:href="#aN"/><use transform="matrix(0.015190972222222224,0,0,0.015190972222222224,51.23914930555556,0)" xlink:href="#aO"/><use transform="matrix(0.015190972222222224,0,0,0.015190972222222224,70.28862847222223,0)" xlink:href="#aH"/><use transform="matrix(0.015190972222222224,0,0,0.015190972222222224,81.484375,0)" xlink:href="#aA"/><use transform="matrix(0.015190972222222224,0,0,0.015190972222222224,99.62239583333334,0)" xlink:href="#ay"/><use transform="matrix(0.015190972222222224,0,0,0.015190972222222224,118.00347222222223,0)" xlink:href="#aK"/></g><path d="M677 24c-213 0-288-135-325-197h-20V0H158v-1490h180v551h14c37-59 106-193 324-193 279 0 474 222 474 576 0 356-194 580-473 580zm-27-161c209 0 317-186 317-421 0-232-105-413-317-413-206 0-314 166-314 413 0 249 111 421 314 421" id="bo"/><g id="J"><use transform="matrix(0.015190972222222224,0,0,0.015190972222222224,0,0)" xlink:href="#aO"/><use transform="matrix(0.015190972222222224,0,0,0.015190972222222224,19.049479166666668,0)" xlink:href="#aI"/><use transform="matrix(0.015190972222222224,0,0,0.015190972222222224,26.584201388888893,0)" xlink:href="#aR"/><use transform="matrix(0.015190972222222224,0,0,0.015190972222222224,43.005642361111114,0)" xlink:href="#aG"/><use transform="matrix(0.015190972222222224,0,0,0.015190972222222224,60.47526041666667,0)" xlink:href="#bo"/><use transform="matrix(0.015190972222222224,0,0,0.015190972222222224,79.52473958333334,0)" xlink:href="#aN"/><use transform="matrix(0.015190972222222224,0,0,0.015190972222222224,87.05946180555557,0)" xlink:href="#aA"/><use transform="matrix(0.015190972222222224,0,0,0.015190972222222224,105.19748263888891,0)" xlink:href="#aO"/></g><path d="M226-283v-166h904v166H226zm0-434v-166h904v166H226" id="bp"/><use transform="matrix(0.015190972222222224,0,0,0.015190972222222224,0,0)" xlink:href="#bp" id="K"/><path d="M678-1118v154H420V0H240v-964H20v-154h220v-149c0-194 155-293 318-293 85 0 141 18 168 30l-50 154c-19-6-47-17-97-17-111 0-159 58-159 166v109h258" id="bq"/><g id="L"><use transform="matrix(0.015190972222222224,0,0,0.015190972222222224,0,0)" xlink:href="#bq"/><use transform="matrix(0.015190972222222224,0,0,0.015190972222222224,11.028645833333336,0)" xlink:href="#aG"/><use transform="matrix(0.015190972222222224,0,0,0.015190972222222224,28.498263888888893,0)" xlink:href="#aN"/><use transform="matrix(0.015190972222222224,0,0,0.015190972222222224,36.032986111111114,0)" xlink:href="#aR"/><use transform="matrix(0.015190972222222224,0,0,0.015190972222222224,52.45442708333334,0)" xlink:href="#aA"/><use transform="matrix(0.015190972222222224,0,0,0.015190972222222224,70.59244791666669,0)" xlink:href="#aK"/></g><g id="M"><use transform="matrix(0.015190972222222224,0,0,0.015190972222222224,0,0)" xlink:href="#aP"/><use transform="matrix(0.015190972222222224,0,0,0.015190972222222224,8.962673611111112,0)" xlink:href="#aP"/><use transform="matrix(0.015190972222222224,0,0,0.015190972222222224,17.925347222222225,0)" xlink:href="#aP"/><use transform="matrix(0.015190972222222224,0,0,0.015190972222222224,26.888020833333336,0)" xlink:href="#aQ"/><use transform="matrix(0.015190972222222224,0,0,0.015190972222222224,45.9375,0)" xlink:href="#aH"/><use transform="matrix(0.015190972222222224,0,0,0.015190972222222224,57.13324652777778,0)" xlink:href="#az"/><use transform="matrix(0.015190972222222224,0,0,0.015190972222222224,75.78776041666667,0)" xlink:href="#aQ"/><use transform="matrix(0.015190972222222224,0,0,0.015190972222222224,94.83723958333334,0)" xlink:href="#aR"/></g><path d="M786 20C389 20 94-260 94-744c0-487 299-766 692-766 339 0 597 194 641 529h-309c-28-162-156-258-326-258-233 0-388 179-388 495 0 323 157 493 387 493 170 0 298-97 328-259h309c-34 277-266 530-642 530" id="br"/><path d="M628 22C291 22 81-210 81-554c0-346 210-578 547-578 265 0 455 142 497 372l-279 52c-25-116-99-188-215-188-160 0-244 139-244 341 0 200 84 341 244 341 116 0 193-74 217-195l279 51C1085-123 896 22 628 22" id="bs"/><path d="M128 0v-1490h300v802h17l366-430h347L740-633 1179 0H826L514-456l-86 97V0H128" id="bt"/><path d="M42 0l360-574-338-544h324c72 124 151 261 209 394 58-134 140-271 215-394h318L785-570 1146 0H824c-79-136-169-280-234-425C528-278 439-134 360 0H42" id="bu"/><g id="N"><use transform="matrix(0.015190972222222224,0,0,0.015190972222222224,0,0)" xlink:href="#br"/><use transform="matrix(0.015190972222222224,0,0,0.015190972222222224,23.014322916666668,0)" xlink:href="#aE"/><use transform="matrix(0.015190972222222224,0,0,0.015190972222222224,42.3828125,0)" xlink:href="#aw"/><use transform="matrix(0.015190972222222224,0,0,0.015190972222222224,60.915798611111114,0)" xlink:href="#bs"/><use transform="matrix(0.015190972222222224,0,0,0.015190972222222224,79.22092013888889,0)" xlink:href="#bt"/><use transform="matrix(0.015190972222222224,0,0,0.015190972222222224,97.26779513888889,0)" xlink:href="#bj"/><use transform="matrix(0.015190972222222224,0,0,0.015190972222222224,117.8515625,0)" xlink:href="#ap"/><use transform="matrix(0.015190972222222224,0,0,0.015190972222222224,136.30859375,0)" xlink:href="#bu"/></g><g id="O"><use transform="matrix(0.015190972222222224,0,0,0.015190972222222224,0,0)" xlink:href="#aI"/><use transform="matrix(0.015190972222222224,0,0,0.015190972222222224,7.534722222222223,0)" xlink:href="#aR"/><use transform="matrix(0.015190972222222224,0,0,0.015190972222222224,23.95616319444445,0)" xlink:href="#bm"/><use transform="matrix(0.015190972222222224,0,0,0.015190972222222224,46.6818576388889,0)" xlink:href="#aM"/><use transform="matrix(0.015190972222222224,0,0,0.015190972222222224,65.07812500000001,0)" xlink:href="#aA"/><use transform="matrix(0.015190972222222224,0,0,0.015190972222222224,83.21614583333334,0)" xlink:href="#aL"/><use transform="matrix(0.015190972222222224,0,0,0.015190972222222224,100.98958333333334,0)" xlink:href="#bn"/><use transform="matrix(0.015190972222222224,0,0,0.015190972222222224,117.36545138888889,0)" xlink:href="#aA"/><use transform="matrix(0.015190972222222224,0,0,0.015190972222222224,135.50347222222223,0)" xlink:href="#aO"/><use transform="matrix(0.015190972222222224,0,0,0.015190972222222224,154.55295138888889,0)" xlink:href="#aK"/></g><g id="P"><use transform="matrix(0.015190972222222224,0,0,0.015190972222222224,0,0)" xlink:href="#aM"/><use transform="matrix(0.015190972222222224,0,0,0.015190972222222224,18.396267361111114,0)" xlink:href="#aG"/><use transform="matrix(0.015190972222222224,0,0,0.015190972222222224,35.86588541666667,0)" xlink:href="#ay"/><use transform="matrix(0.015190972222222224,0,0,0.015190972222222224,54.24696180555556,0)" xlink:href="#aO"/><use transform="matrix(0.015190972222222224,0,0,0.015190972222222224,73.29644097222223,0)" xlink:href="#aN"/><use transform="matrix(0.015190972222222224,0,0,0.015190972222222224,80.83116319444446,0)" xlink:href="#aA"/><use transform="matrix(0.015190972222222224,0,0,0.015190972222222224,98.9691840277778,0)" xlink:href="#bm"/><use transform="matrix(0.015190972222222224,0,0,0.015190972222222224,121.69487847222224,0)" xlink:href="#aM"/><use transform="matrix(0.015190972222222224,0,0,0.015190972222222224,140.09114583333337,0)" xlink:href="#aA"/><use transform="matrix(0.015190972222222224,0,0,0.015190972222222224,158.2291666666667,0)" xlink:href="#aL"/><use transform="matrix(0.015190972222222224,0,0,0.015190972222222224,176.0026041666667,0)" xlink:href="#bn"/><use transform="matrix(0.015190972222222224,0,0,0.015190972222222224,193.07725694444449,0)" xlink:href="#bo"/><use transform="matrix(0.015190972222222224,0,0,0.015190972222222224,212.12673611111114,0)" xlink:href="#az"/><use transform="matrix(0.015190972222222224,0,0,0.015190972222222224,230.0824652777778,0)" xlink:href="#bd"/><use transform="matrix(0.015190972222222224,0,0,0.015190972222222224,247.06597222222226,0)" xlink:href="#bm"/><use transform="matrix(0.015190972222222224,0,0,0.015190972222222224,269.7916666666667,0)" xlink:href="#aM"/><use transform="matrix(0.015190972222222224,0,0,0.015190972222222224,288.1879340277778,0)" xlink:href="#aG"/><use transform="matrix(0.015190972222222224,0,0,0.015190972222222224,305.65755208333337,0)" xlink:href="#ay"/><use transform="matrix(0.015190972222222224,0,0,0.015190972222222224,324.0386284722223,0)" xlink:href="#aW"/><use transform="matrix(0.015190972222222224,0,0,0.015190972222222224,343.11848958333337,0)" xlink:href="#aA"/><use transform="matrix(0.015190972222222224,0,0,0.015190972222222224,361.2565104166667,0)" xlink:href="#aK"/></g><g id="Q"><use transform="matrix(0.015190972222222224,0,0,0.015190972222222224,0,0)" xlink:href="#bb"/><use transform="matrix(0.015190972222222224,0,0,0.015190972222222224,8.734809027777779,0)" xlink:href="#bl"/><use transform="matrix(0.015190972222222224,0,0,0.015190972222222224,28.103298611111114,0)" xlink:href="#as"/><use transform="matrix(0.015190972222222224,0,0,0.015190972222222224,47.71484375,0)" xlink:href="#bk"/><use transform="matrix(0.015190972222222224,0,0,0.015190972222222224,67.08333333333334,0)" xlink:href="#au"/></g><path d="M140 405l46-156c120 36 205 19 263-150l32-93L54-1118h197c107 313 237 620 324 950 87-331 219-637 326-950h196L606 167c-68 178-176 259-334 259-64 0-113-12-132-21" id="bv"/><g id="R"><use transform="matrix(0.015190972222222224,0,0,0.015190972222222224,0,0)" xlink:href="#aJ"/><use transform="matrix(0.015190972222222224,0,0,0.015190972222222224,10.785590277777779,0)" xlink:href="#bv"/><use transform="matrix(0.015190972222222224,0,0,0.015190972222222224,28.270399305555557,0)" xlink:href="#aQ"/><use transform="matrix(0.015190972222222224,0,0,0.015190972222222224,47.31987847222223,0)" xlink:href="#aA"/></g><path d="M232-923l-22-567h194l-22 567H232zm340 0l-22-567h194l-22 567H572" id="bw"/><g id="S"><use transform="matrix(0.015190972222222224,0,0,0.015190972222222224,0,0)" xlink:href="#bw"/><use transform="matrix(0.015190972222222224,0,0,0.015190972222222224,14.492187500000002,0)" xlink:href="#aJ"/><use transform="matrix(0.015190972222222224,0,0,0.015190972222222224,24.366319444444446,0)" xlink:href="#aA"/><use transform="matrix(0.015190972222222224,0,0,0.015190972222222224,41.80555555555556,0)" xlink:href="#bd"/><use transform="matrix(0.015190972222222224,0,0,0.015190972222222224,59.396701388888886,0)" xlink:href="#aJ"/><use transform="matrix(0.015190972222222224,0,0,0.015190972222222224,69.57465277777777,0)" xlink:href="#bw"/><use transform="matrix(0.015190972222222224,0,0,0.015190972222222224,81.51475694444444,0)" xlink:href="#aK"/></g><g id="T"><use transform="matrix(0.015190972222222224,0,0,0.015190972222222224,0,0)" xlink:href="#aF"/><use transform="matrix(0.015190972222222224,0,0,0.015190972222222224,17.332899305555557,0)" xlink:href="#aG"/><use transform="matrix(0.015190972222222224,0,0,0.015190972222222224,34.802517361111114,0)" xlink:href="#aN"/><use transform="matrix(0.015190972222222224,0,0,0.015190972222222224,42.337239583333336,0)" xlink:href="#aX"/><use transform="matrix(0.015190972222222224,0,0,0.015190972222222224,60.73350694444445,0)" xlink:href="#aA"/><use transform="matrix(0.015190972222222224,0,0,0.015190972222222224,78.87152777777779,0)" xlink:href="#aK"/></g><g id="U"><use transform="matrix(0.015190972222222224,0,0,0.015190972222222224,0,0)" xlink:href="#az"/><use transform="matrix(0.015190972222222224,0,0,0.015190972222222224,18.65451388888889,0)" xlink:href="#ay"/><use transform="matrix(0.015190972222222224,0,0,0.015190972222222224,37.03559027777778,0)" xlink:href="#bm"/><use transform="matrix(0.015190972222222224,0,0,0.015190972222222224,59.76128472222223,0)" xlink:href="#aM"/><use transform="matrix(0.015190972222222224,0,0,0.015190972222222224,78.15755208333334,0)" xlink:href="#aG"/><use transform="matrix(0.015190972222222224,0,0,0.015190972222222224,95.6271701388889,0)" xlink:href="#ay"/><use transform="matrix(0.015190972222222224,0,0,0.015190972222222224,114.00824652777779,0)" xlink:href="#aW"/><use transform="matrix(0.015190972222222224,0,0,0.015190972222222224,133.0881076388889,0)" xlink:href="#aA"/><use transform="matrix(0.015190972222222224,0,0,0.015190972222222224,151.22612847222226,0)" xlink:href="#aK"/></g><g id="V"><use transform="matrix(0.015190972222222224,0,0,0.015190972222222224,0,0)" xlink:href="#aQ"/><use transform="matrix(0.015190972222222224,0,0,0.015190972222222224,19.049479166666668,0)" xlink:href="#aN"/><use transform="matrix(0.015190972222222224,0,0,0.015190972222222224,26.584201388888893,0)" xlink:href="#aG"/><use transform="matrix(0.015190972222222224,0,0,0.015190972222222224,44.05381944444445,0)" xlink:href="#aL"/><use transform="matrix(0.015190972222222224,0,0,0.015190972222222224,61.82725694444446,0)" xlink:href="#aA"/><use transform="matrix(0.015190972222222224,0,0,0.015190972222222224,79.9652777777778,0)" xlink:href="#aM"/><use transform="matrix(0.015190972222222224,0,0,0.015190972222222224,98.36154513888891,0)" xlink:href="#az"/><use transform="matrix(0.015190972222222224,0,0,0.015190972222222224,117.0160590277778,0)" xlink:href="#aN"/><use transform="matrix(0.015190972222222224,0,0,0.015190972222222224,124.55078125000004,0)" xlink:href="#aO"/><use transform="matrix(0.015190972222222224,0,0,0.015190972222222224,143.60026041666669,0)" xlink:href="#aA"/><use transform="matrix(0.015190972222222224,0,0,0.015190972222222224,161.73828125000003,0)" xlink:href="#aH"/><use transform="matrix(0.015190972222222224,0,0,0.015190972222222224,171.5060763888889,0)" xlink:href="#aK"/></g><g id="W"><use transform="matrix(0.015190972222222224,0,0,0.015190972222222224,0,0)" xlink:href="#aS"/><use transform="matrix(0.015190972222222224,0,0,0.015190972222222224,17.591145833333336,0)" xlink:href="#ap"/><use transform="matrix(0.015190972222222224,0,0,0.015190972222222224,36.97482638888889,0)" xlink:href="#av"/><use transform="matrix(0.015190972222222224,0,0,0.015190972222222224,55.036892361111114,0)" xlink:href="#aq"/><use transform="matrix(0.015190972222222224,0,0,0.015190972222222224,74.6484375,0)" xlink:href="#aw"/><use transform="matrix(0.015190972222222224,0,0,0.015190972222222224,93.18142361111111,0)" xlink:href="#aB"/></g><g id="X"><use transform="matrix(0.015190972222222224,0,0,0.015190972222222224,0,0)" xlink:href="#aL"/><use transform="matrix(0.015190972222222224,0,0,0.015190972222222224,17.773437500000004,0)" xlink:href="#aM"/><use transform="matrix(0.015190972222222224,0,0,0.015190972222222224,36.169704861111114,0)" xlink:href="#aI"/><use transform="matrix(0.015190972222222224,0,0,0.015190972222222224,43.704427083333336,0)" xlink:href="#aN"/><use transform="matrix(0.015190972222222224,0,0,0.015190972222222224,51.23914930555556,0)" xlink:href="#aO"/><use transform="matrix(0.015190972222222224,0,0,0.015190972222222224,70.28862847222223,0)" xlink:href="#aH"/><use transform="matrix(0.015190972222222224,0,0,0.015190972222222224,81.484375,0)" xlink:href="#aA"/><use transform="matrix(0.015190972222222224,0,0,0.015190972222222224,99.62239583333334,0)" xlink:href="#ay"/><use transform="matrix(0.015190972222222224,0,0,0.015190972222222224,118.00347222222223,0)" xlink:href="#aK"/></g><g id="Y"><use transform="matrix(0.015190972222222224,0,0,0.015190972222222224,0,0)" xlink:href="#aO"/><use transform="matrix(0.015190972222222224,0,0,0.015190972222222224,19.049479166666668,0)" xlink:href="#aI"/><use transform="matrix(0.015190972222222224,0,0,0.015190972222222224,26.584201388888893,0)" xlink:href="#aR"/><use transform="matrix(0.015190972222222224,0,0,0.015190972222222224,43.005642361111114,0)" xlink:href="#aG"/><use transform="matrix(0.015190972222222224,0,0,0.015190972222222224,60.47526041666667,0)" xlink:href="#bo"/><use transform="matrix(0.015190972222222224,0,0,0.015190972222222224,79.52473958333334,0)" xlink:href="#aN"/><use transform="matrix(0.015190972222222224,0,0,0.015190972222222224,87.05946180555557,0)" xlink:href="#aA"/><use transform="matrix(0.015190972222222224,0,0,0.015190972222222224,105.19748263888891,0)" xlink:href="#aO"/></g><path d="M681 22C323 22 94-145 85-462h297c10 151 131 226 296 226 163 0 271-77 271-190 0-102-95-149-257-189l-164-41c-252-61-403-188-403-405 0-269 236-449 560-449 330 0 546 183 551 445H941c-11-119-106-188-259-188-156 0-244 72-244 172-3 156 226 185 373 221 250 61 445 186 445 436 0 271-213 446-575 446" id="bx"/><g id="Z"><use transform="matrix(0.015190972222222224,0,0,0.015190972222222224,0,0)" xlink:href="#bx"/><use transform="matrix(0.015190972222222224,0,0,0.015190972222222224,20.371093750000004,0)" xlink:href="#aw"/><use transform="matrix(0.015190972222222224,0,0,0.015190972222222224,39.20789930555556,0)" xlink:href="#av"/><use transform="matrix(0.015190972222222224,0,0,0.015190972222222224,57.269965277777786,0)" xlink:href="#aB"/><use transform="matrix(0.015190972222222224,0,0,0.015190972222222224,69.1796875,0)" xlink:href="#bs"/><use transform="matrix(0.015190972222222224,0,0,0.015190972222222224,87.48480902777777,0)" xlink:href="#aE"/><use transform="matrix(0.015190972222222224,0,0,0.015190972222222224,106.85329861111111,0)" xlink:href="#bj"/><use transform="matrix(0.015190972222222224,0,0,0.015190972222222224,127.43706597222223,0)" xlink:href="#av"/><use transform="matrix(0.015190972222222224,0,0,0.015190972222222224,145.49913194444446,0)" xlink:href="#aB"/></g><g id="aa"><use transform="matrix(0.015190972222222224,0,0,0.015190972222222224,0,0)" xlink:href="#as"/><use transform="matrix(0.015190972222222224,0,0,0.015190972222222224,19.61154513888889,0)" xlink:href="#aB"/><use transform="matrix(0.015190972222222224,0,0,0.015190972222222224,31.521267361111114,0)" xlink:href="#ap"/><use transform="matrix(0.015190972222222224,0,0,0.015190972222222224,50.60112847222223,0)" xlink:href="#as"/><use transform="matrix(0.015190972222222224,0,0,0.015190972222222224,70.21267361111111,0)" xlink:href="#at"/><use transform="matrix(0.015190972222222224,0,0,0.015190972222222224,87.63671875,0)" xlink:href="#ax"/></g><g id="ab"><use transform="matrix(0.015190972222222224,0,0,0.015190972222222224,0,0)" xlink:href="#aR"/><use transform="matrix(0.015190972222222224,0,0,0.015190972222222224,16.421440972222225,0)" xlink:href="#aA"/><use transform="matrix(0.015190972222222224,0,0,0.015190972222222224,34.86328125,0)" xlink:href="#aG"/><use transform="matrix(0.015190972222222224,0,0,0.015190972222222224,52.33289930555556,0)" xlink:href="#aH"/><use transform="matrix(0.015190972222222224,0,0,0.015190972222222224,63.52864583333334,0)" xlink:href="#aL"/><use transform="matrix(0.015190972222222224,0,0,0.015190972222222224,81.30208333333334,0)" xlink:href="#aM"/><use transform="matrix(0.015190972222222224,0,0,0.015190972222222224,97.57161458333334,0)" xlink:href="#ba"/><use transform="matrix(0.015190972222222224,0,0,0.015190972222222224,115.22352430555557,0)" xlink:href="#aA"/><use transform="matrix(0.015190972222222224,0,0,0.015190972222222224,133.3615451388889,0)" xlink:href="#aH"/><use transform="matrix(0.015190972222222224,0,0,0.015190972222222224,145.55989583333337,0)" xlink:href="#aZ"/><use transform="matrix(0.015190972222222224,0,0,0.015190972222222224,172.81250000000003,0)" xlink:href="#aK"/></g><path d="M657 26c-323 0-524-166-541-416h195c15 169 171 246 346 246 202 0 356-106 356-265 5-203-294-238-475-293-239-73-380-191-380-389 0-252 224-419 512-419 294 0 499 171 508 396H992c-17-145-151-228-328-228-193 0-321 102-321 242 0 156 175 211 284 241l149 41c160 44 422 134 422 412 0 244-197 432-541 432" id="by"/><g id="ac"><use transform="matrix(0.015190972222222224,0,0,0.015190972222222224,0,0)" xlink:href="#az"/><use transform="matrix(0.015190972222222224,0,0,0.015190972222222224,18.65451388888889,0)" xlink:href="#ay"/><use transform="matrix(0.015190972222222224,0,0,0.015190972222222224,37.03559027777778,0)" xlink:href="#by"/><use transform="matrix(0.015190972222222224,0,0,0.015190972222222224,56.996527777777786,0)" xlink:href="#aA"/><use transform="matrix(0.015190972222222224,0,0,0.015190972222222224,75.43836805555557,0)" xlink:href="#aG"/><use transform="matrix(0.015190972222222224,0,0,0.015190972222222224,92.90798611111113,0)" xlink:href="#aH"/><use transform="matrix(0.015190972222222224,0,0,0.015190972222222224,104.1037326388889,0)" xlink:href="#aL"/><use transform="matrix(0.015190972222222224,0,0,0.015190972222222224,121.8771701388889,0)" xlink:href="#aM"/><use transform="matrix(0.015190972222222224,0,0,0.015190972222222224,140.2734375,0)" xlink:href="#aK"/></g><g id="ad"><use transform="matrix(0.015190972222222224,0,0,0.015190972222222224,0,0)" xlink:href="#aQ"/><use transform="matrix(0.015190972222222224,0,0,0.015190972222222224,19.049479166666668,0)" xlink:href="#aN"/><use transform="matrix(0.015190972222222224,0,0,0.015190972222222224,26.584201388888893,0)" xlink:href="#aG"/><use transform="matrix(0.015190972222222224,0,0,0.015190972222222224,44.05381944444445,0)" xlink:href="#aL"/><use transform="matrix(0.015190972222222224,0,0,0.015190972222222224,61.82725694444446,0)" xlink:href="#aA"/><use transform="matrix(0.015190972222222224,0,0,0.015190972222222224,79.9652777777778,0)" xlink:href="#aM"/><use transform="matrix(0.015190972222222224,0,0,0.015190972222222224,98.36154513888891,0)" xlink:href="#az"/><use transform="matrix(0.015190972222222224,0,0,0.015190972222222224,117.0160590277778,0)" xlink:href="#aN"/><use transform="matrix(0.015190972222222224,0,0,0.015190972222222224,124.55078125000004,0)" xlink:href="#aO"/><use transform="matrix(0.015190972222222224,0,0,0.015190972222222224,143.60026041666669,0)" xlink:href="#aA"/><use transform="matrix(0.015190972222222224,0,0,0.015190972222222224,161.73828125000003,0)" xlink:href="#aH"/></g><g id="ae"><use transform="matrix(0.015190972222222224,0,0,0.015190972222222224,0,0)" xlink:href="#bp"/><use transform="matrix(0.015190972222222224,0,0,0.015190972222222224,20.583767361111114,0)" xlink:href="#bw"/><use transform="matrix(0.015190972222222224,0,0,0.015190972222222224,35.075954861111114,0)" xlink:href="#by"/><use transform="matrix(0.015190972222222224,0,0,0.015190972222222224,55.036892361111114,0)" xlink:href="#aA"/><use transform="matrix(0.015190972222222224,0,0,0.015190972222222224,73.47873263888889,0)" xlink:href="#aG"/><use transform="matrix(0.015190972222222224,0,0,0.015190972222222224,90.94835069444444,0)" xlink:href="#aH"/><use transform="matrix(0.015190972222222224,0,0,0.015190972222222224,102.14409722222221,0)" xlink:href="#aL"/><use transform="matrix(0.015190972222222224,0,0,0.015190972222222224,119.91753472222221,0)" xlink:href="#aM"/><use transform="matrix(0.015190972222222224,0,0,0.015190972222222224,138.31380208333331,0)" xlink:href="#aP"/><use transform="matrix(0.015190972222222224,0,0,0.015190972222222224,147.27647569444443,0)" xlink:href="#aP"/><use transform="matrix(0.015190972222222224,0,0,0.015190972222222224,156.23914930555554,0)" xlink:href="#aP"/><use transform="matrix(0.015190972222222224,0,0,0.015190972222222224,162.64973958333331,0)" xlink:href="#bw"/><use transform="matrix(0.015190972222222224,0,0,0.015190972222222224,174.58984374999997,0)" xlink:href="#aK"/></g><path d="M135 0v-1490h581c339 0 533 210 533 503 0 295-197 500-540 500H440V0H135zm305-733h220c186 0 274-104 274-254s-88-251-275-251H440v505" id="bz"/><g id="af"><use transform="matrix(0.015190972222222224,0,0,0.015190972222222224,0,0)" xlink:href="#bz"/><use transform="matrix(0.015190972222222224,0,0,0.015190972222222224,19.76345486111111,0)" xlink:href="#av"/><use transform="matrix(0.015190972222222224,0,0,0.015190972222222224,37.825520833333336,0)" xlink:href="#aD"/><use transform="matrix(0.015190972222222224,0,0,0.015190972222222224,57.48263888888889,0)" xlink:href="#aT"/><use transform="matrix(0.015190972222222224,0,0,0.015190972222222224,65.91362847222223,0)" xlink:href="#bl"/><use transform="matrix(0.015190972222222224,0,0,0.015190972222222224,85.28211805555557,0)" xlink:href="#av"/><use transform="matrix(0.015190972222222224,0,0,0.015190972222222224,103.3441840277778,0)" xlink:href="#au"/><use transform="matrix(0.015190972222222224,0,0,0.015190972222222224,114.43359375000003,0)" xlink:href="#ap"/><use transform="matrix(0.015190972222222224,0,0,0.015190972222222224,133.51345486111114,0)" xlink:href="#aB"/></g><g id="ag"><use transform="matrix(0.015190972222222224,0,0,0.015190972222222224,0,0)" xlink:href="#aQ"/><use transform="matrix(0.015190972222222224,0,0,0.015190972222222224,19.35329861111111,0)" xlink:href="#aG"/><use transform="matrix(0.015190972222222224,0,0,0.015190972222222224,36.82291666666667,0)" xlink:href="#aW"/><use transform="matrix(0.015190972222222224,0,0,0.015190972222222224,55.902777777777786,0)" xlink:href="#aA"/><use transform="matrix(0.015190972222222224,0,0,0.015190972222222224,74.04079861111111,0)" xlink:href="#aU"/><use transform="matrix(0.015190972222222224,0,0,0.015190972222222224,82.39583333333334,0)" xlink:href="#ay"/><use transform="matrix(0.015190972222222224,0,0,0.015190972222222224,100.77690972222223,0)" xlink:href="#aQ"/><use transform="matrix(0.015190972222222224,0,0,0.015190972222222224,119.8263888888889,0)" xlink:href="#aX"/><use transform="matrix(0.015190972222222224,0,0,0.015190972222222224,138.22265625,0)" xlink:href="#aJ"/></g><g id="ah"><use transform="matrix(0.015190972222222224,0,0,0.015190972222222224,0,0)" xlink:href="#aL"/><use transform="matrix(0.015190972222222224,0,0,0.015190972222222224,17.773437500000004,0)" xlink:href="#aX"/><use transform="matrix(0.015190972222222224,0,0,0.015190972222222224,36.169704861111114,0)" xlink:href="#aH"/><use transform="matrix(0.015190972222222224,0,0,0.015190972222222224,48.368055555555564,0)" xlink:href="#aH"/><use transform="matrix(0.015190972222222224,0,0,0.015190972222222224,59.56380208333334,0)" xlink:href="#aA"/><use transform="matrix(0.015190972222222224,0,0,0.015190972222222224,77.70182291666669,0)" xlink:href="#ay"/><use transform="matrix(0.015190972222222224,0,0,0.015190972222222224,96.08289930555557,0)" xlink:href="#aJ"/><use transform="matrix(0.015190972222222224,0,0,0.015190972222222224,106.26085069444446,0)" xlink:href="#aY"/><use transform="matrix(0.015190972222222224,0,0,0.015190972222222224,126.13064236111113,0)" xlink:href="#aG"/><use transform="matrix(0.015190972222222224,0,0,0.015190972222222224,143.60026041666669,0)" xlink:href="#aW"/><use transform="matrix(0.015190972222222224,0,0,0.015190972222222224,162.6801215277778,0)" xlink:href="#aA"/><use transform="matrix(0.015190972222222224,0,0,0.015190972222222224,180.81814236111114,0)" xlink:href="#aK"/></g><path d="M180 0v-1490h224l606 953c40 63 108 177 176 312-27-437-7-821-13-1265h190V0h-226C860-448 622-778 356-1262c27 476 11 792 15 1262H180" id="bA"/><g id="ai"><use transform="matrix(0.015190972222222224,0,0,0.015190972222222224,0,0)" xlink:href="#az"/><use transform="matrix(0.015190972222222224,0,0,0.015190972222222224,18.65451388888889,0)" xlink:href="#ay"/><use transform="matrix(0.015190972222222224,0,0,0.015190972222222224,37.03559027777778,0)" xlink:href="#bA"/><use transform="matrix(0.015190972222222224,0,0,0.015190972222222224,60.47526041666667,0)" xlink:href="#aA"/><use transform="matrix(0.015190972222222224,0,0,0.015190972222222224,77.91449652777779,0)" xlink:href="#bd"/><use transform="matrix(0.015190972222222224,0,0,0.015190972222222224,95.50564236111111,0)" xlink:href="#aJ"/><use transform="matrix(0.015190972222222224,0,0,0.015190972222222224,105.68359375,0)" xlink:href="#aY"/><use transform="matrix(0.015190972222222224,0,0,0.015190972222222224,125.55338541666669,0)" xlink:href="#aG"/><use transform="matrix(0.015190972222222224,0,0,0.015190972222222224,143.02300347222223,0)" xlink:href="#aW"/><use transform="matrix(0.015190972222222224,0,0,0.015190972222222224,162.10286458333334,0)" xlink:href="#aA"/><use transform="matrix(0.015190972222222224,0,0,0.015190972222222224,180.24088541666669,0)" xlink:href="#aK"/></g><g id="aj"><use transform="matrix(0.015190972222222224,0,0,0.015190972222222224,0,0)" xlink:href="#az"/><use transform="matrix(0.015190972222222224,0,0,0.015190972222222224,18.65451388888889,0)" xlink:href="#ay"/><use transform="matrix(0.015190972222222224,0,0,0.015190972222222224,37.03559027777778,0)" xlink:href="#aY"/><use transform="matrix(0.015190972222222224,0,0,0.015190972222222224,56.90538194444444,0)" xlink:href="#aH"/><use transform="matrix(0.015190972222222224,0,0,0.015190972222222224,68.10112847222221,0)" xlink:href="#aA"/><use transform="matrix(0.015190972222222224,0,0,0.015190972222222224,85.63151041666666,0)" xlink:href="#aF"/><use transform="matrix(0.015190972222222224,0,0,0.015190972222222224,103.26822916666666,0)" xlink:href="#aY"/><use transform="matrix(0.015190972222222224,0,0,0.015190972222222224,123.13802083333333,0)" xlink:href="#aG"/><use transform="matrix(0.015190972222222224,0,0,0.015190972222222224,140.60763888888889,0)" xlink:href="#aW"/><use transform="matrix(0.015190972222222224,0,0,0.015190972222222224,159.6875,0)" xlink:href="#aA"/><use transform="matrix(0.015190972222222224,0,0,0.015190972222222224,177.82552083333334,0)" xlink:href="#aK"/></g><g id="ak"><use transform="matrix(0.015190972222222224,0,0,0.015190972222222224,0,0)" xlink:href="#aN"/><use transform="matrix(0.015190972222222224,0,0,0.015190972222222224,7.534722222222223,0)" xlink:href="#aI"/><use transform="matrix(0.015190972222222224,0,0,0.015190972222222224,15.069444444444446,0)" xlink:href="#aZ"/><use transform="matrix(0.015190972222222224,0,0,0.015190972222222224,42.322048611111114,0)" xlink:href="#aI"/><use transform="matrix(0.015190972222222224,0,0,0.015190972222222224,49.856770833333336,0)" xlink:href="#aJ"/><use transform="matrix(0.015190972222222224,0,0,0.015190972222222224,60.03472222222223,0)" xlink:href="#aY"/><use transform="matrix(0.015190972222222224,0,0,0.015190972222222224,79.73741319444446,0)" xlink:href="#aA"/><use transform="matrix(0.015190972222222224,0,0,0.015190972222222224,97.8754340277778,0)" xlink:href="#aH"/><use transform="matrix(0.015190972222222224,0,0,0.015190972222222224,110.07378472222224,0)" xlink:href="#aY"/><use transform="matrix(0.015190972222222224,0,0,0.015190972222222224,129.9435763888889,0)" xlink:href="#aG"/><use transform="matrix(0.015190972222222224,0,0,0.015190972222222224,147.41319444444446,0)" xlink:href="#aW"/><use transform="matrix(0.015190972222222224,0,0,0.015190972222222224,166.49305555555557,0)" xlink:href="#aA"/><use transform="matrix(0.015190972222222224,0,0,0.015190972222222224,184.6310763888889,0)" xlink:href="#aK"/></g><g id="al"><use transform="matrix(0.015190972222222224,0,0,0.015190972222222224,0,0)" xlink:href="#az"/><use transform="matrix(0.015190972222222224,0,0,0.015190972222222224,18.65451388888889,0)" xlink:href="#ay"/><use transform="matrix(0.015190972222222224,0,0,0.015190972222222224,37.03559027777778,0)" xlink:href="#by"/><use transform="matrix(0.015190972222222224,0,0,0.015190972222222224,56.996527777777786,0)" xlink:href="#aA"/><use transform="matrix(0.015190972222222224,0,0,0.015190972222222224,75.13454861111111,0)" xlink:href="#aJ"/><use transform="matrix(0.015190972222222224,0,0,0.015190972222222224,85.3125,0)" xlink:href="#aV"/><use transform="matrix(0.015190972222222224,0,0,0.015190972222222224,102.90364583333334,0)" xlink:href="#aI"/><use transform="matrix(0.015190972222222224,0,0,0.015190972222222224,110.43836805555557,0)" xlink:href="#aZ"/><use transform="matrix(0.015190972222222224,0,0,0.015190972222222224,137.69097222222223,0)" xlink:href="#aI"/><use transform="matrix(0.015190972222222224,0,0,0.015190972222222224,145.22569444444446,0)" xlink:href="#aJ"/><use transform="matrix(0.015190972222222224,0,0,0.015190972222222224,155.40364583333334,0)" xlink:href="#aK"/></g><path d="M789 20c-398 0-667-293-667-764 0-473 273-766 655-766 315 0 558 198 612 487h-196c-61-191-204-311-415-311-262 0-471 207-471 590 0 380 208 588 482 588 249 0 420-165 425-427H828v-166h572v163c0 370-256 606-611 606" id="bB"/><g id="am"><use transform="matrix(0.015190972222222224,0,0,0.015190972222222224,0,0)" xlink:href="#az"/><use transform="matrix(0.015190972222222224,0,0,0.015190972222222224,18.65451388888889,0)" xlink:href="#ay"/><use transform="matrix(0.015190972222222224,0,0,0.015190972222222224,37.03559027777778,0)" xlink:href="#bB"/><use transform="matrix(0.015190972222222224,0,0,0.015190972222222224,60.247395833333336,0)" xlink:href="#az"/><use transform="matrix(0.015190972222222224,0,0,0.015190972222222224,76.47135416666667,0)" xlink:href="#ba"/><use transform="matrix(0.015190972222222224,0,0,0.015190972222222224,94.12326388888889,0)" xlink:href="#az"/><use transform="matrix(0.015190972222222224,0,0,0.015190972222222224,112.77777777777777,0)" xlink:href="#aY"/><use transform="matrix(0.015190972222222224,0,0,0.015190972222222224,132.64756944444443,0)" xlink:href="#aG"/><use transform="matrix(0.015190972222222224,0,0,0.015190972222222224,150.1171875,0)" xlink:href="#aW"/><use transform="matrix(0.015190972222222224,0,0,0.015190972222222224,169.19704861111111,0)" xlink:href="#aA"/><use transform="matrix(0.015190972222222224,0,0,0.015190972222222224,187.33506944444446,0)" xlink:href="#aK"/></g><g id="an"><use transform="matrix(0.015190972222222224,0,0,0.015190972222222224,0,0)" xlink:href="#aL"/><use transform="matrix(0.015190972222222224,0,0,0.015190972222222224,17.773437500000004,0)" xlink:href="#aM"/><use transform="matrix(0.015190972222222224,0,0,0.015190972222222224,36.169704861111114,0)" xlink:href="#aI"/><use transform="matrix(0.015190972222222224,0,0,0.015190972222222224,43.704427083333336,0)" xlink:href="#aN"/><use transform="matrix(0.015190972222222224,0,0,0.015190972222222224,51.23914930555556,0)" xlink:href="#aO"/><use transform="matrix(0.015190972222222224,0,0,0.015190972222222224,70.28862847222223,0)" xlink:href="#aA"/><use transform="matrix(0.015190972222222224,0,0,0.015190972222222224,88.42664930555557,0)" xlink:href="#aH"/><use transform="matrix(0.015190972222222224,0,0,0.015190972222222224,100.62500000000001,0)" xlink:href="#ay"/><use transform="matrix(0.015190972222222224,0,0,0.015190972222222224,119.0060763888889,0)" xlink:href="#aK"/></g></defs></g></svg>