<svg xmlns="http://www.w3.org/2000/svg" xmlns:xlink="http://www.w3.org/1999/xlink" xmlns:lucid="lucid" width="1832" height="1071.98"><g transform="translate(-2679 -379)" lucid:page-tab-id="0_0"><path d="M2500 0h2500v1500H2500z" fill="#fff"/><path d="M3467.07 386a6 6 0 0 1 6-6h188a6 6 0 0 1 6 6v134.4a6 6 0 0 1-6 6h-188a6 6 0 0 1-6-6z" stroke="#000" stroke-width="2" fill="#fff"/><use xlink:href="#a" transform="matrix(1,0,0,1,3479.0688711694806,392) translate(65.69639756944444 25.37152777777778)"/><use xlink:href="#b" transform="matrix(1,0,0,1,3479.0688711694806,392) translate(20.401258680555543 57.63715277777778)"/><use xlink:href="#c" transform="matrix(1,0,0,1,3479.0688711694806,392) translate(87.83832465277777 57.63715277777778)"/><use xlink:href="#d" transform="matrix(1,0,0,1,3479.0688711694806,392) translate(28.750000000000007 89.04166666666667)"/><use xlink:href="#e" transform="matrix(1,0,0,1,3479.0688711694806,392) translate(24.08940972222223 120.87777777777777)"/><use xlink:href="#f" transform="matrix(1,0,0,1,3479.0688711694806,392) translate(99.37152777777779 120.87777777777777)"/><path d="M2680 667.03a6 6 0 0 1 6-6h368a6 6 0 0 1 6 6v108a6 6 0 0 1-6 6h-368a6 6 0 0 1-6-6z" stroke="#000" stroke-width="2" fill="#fff"/><use xlink:href="#g" transform="matrix(1,0,0,1,2692,673.0354628381019) translate(112.50520833333334 24.52777777777778)"/><use xlink:href="#h" transform="matrix(1,0,0,1,2692,673.0354628381019) translate(118.01193576388889 56.79340277777778)"/><use xlink:href="#i" transform="matrix(1,0,0,1,2692,673.0354628381019) translate(185.44900173611111 56.79340277777778)"/><use xlink:href="#j" transform="matrix(1,0,0,1,2692,673.0354628381019) translate(9.553819444444457 89.05902777777777)"/><use xlink:href="#k" transform="matrix(1,0,0,1,2692,673.0354628381019) translate(84.83593750000001 89.05902777777777)"/><use xlink:href="#l" transform="matrix(1,0,0,1,2692,673.0354628381019) translate(169.31944444444446 89.05902777777777)"/><use xlink:href="#m" transform="matrix(1,0,0,1,2692,673.0354628381019) translate(266.97569444444446 89.05902777777777)"/><path d="M3127.07 655.1a6 6 0 0 1 6-6h328a6 6 0 0 1 6 6v131.86a6 6 0 0 1-6 6h-328a6 6 0 0 1-6-6z" stroke="#000" stroke-width="2" fill="#fff"/><use xlink:href="#n" transform="matrix(1,0,0,1,3139.0688711694806,661.1142388797687) translate(84.87174479166667 36.52777777777778)"/><use xlink:href="#o" transform="matrix(1,0,0,1,3139.0688711694806,661.1142388797687) translate(59.242404513888886 68.79340277777777)"/><use xlink:href="#p" transform="matrix(1,0,0,1,3139.0688711694806,661.1142388797687) translate(131.94205729166669 68.79340277777777)"/><use xlink:href="#q" transform="matrix(1,0,0,1,3139.0688711694806,661.1142388797687) translate(193.67165798611111 68.79340277777777)"/><use xlink:href="#j" transform="matrix(1,0,0,1,3139.0688711694806,661.1142388797687) translate(85.85915798611111 101.05902777777777)"/><use xlink:href="#r" transform="matrix(1,0,0,1,3139.0688711694806,661.1142388797687) translate(161.14127604166669 101.05902777777777)"/><path d="M2720 846a6 6 0 0 1 6-6h288a6 6 0 0 1 6 6v124.08a6 6 0 0 1-6 6h-288a6 6 0 0 1-6-6z" stroke="#000" stroke-width="2" fill="#fff"/><use xlink:href="#s" transform="matrix(1,0,0,1,2732,852) translate(102.36089409722223 21.52777777777778)"/><use xlink:href="#h" transform="matrix(1,0,0,1,2732,852) translate(78.01193576388889 53.79340277777778)"/><use xlink:href="#t" transform="matrix(1,0,0,1,2732,852) translate(145.44900173611111 53.79340277777778)"/><use xlink:href="#j" transform="matrix(1,0,0,1,2732,852) translate(13.150607638888886 86.05902777777777)"/><use xlink:href="#u" transform="matrix(1,0,0,1,2732,852) translate(88.43272569444444 86.05902777777777)"/><use xlink:href="#v" transform="matrix(1,0,0,1,2732,852) translate(175.78689236111111 86.05902777777777)"/><use xlink:href="#w" transform="matrix(1,0,0,1,2732,852) translate(13.921875 117.46354166666667)"/><use xlink:href="#x" transform="matrix(1,0,0,1,2732,852) translate(105.11979166666667 117.46354166666667)"/><use xlink:href="#y" transform="matrix(1,0,0,1,2732,852) translate(125.234375 117.46354166666667)"/><use xlink:href="#z" transform="matrix(1,0,0,1,2732,852) translate(185.78645833333334 117.46354166666667)"/><path d="M3990 1286a6 6 0 0 1 6-6h328a6 6 0 0 1 6 6v157.97a6 6 0 0 1-6 6h-328a6 6 0 0 1-6-6z" stroke="#000" stroke-width="2" fill="#fff"/><use xlink:href="#A" transform="matrix(1,0,0,1,4002,1292) translate(129.97265625 21.52777777777778)"/><use xlink:href="#h" transform="matrix(1,0,0,1,4002,1292) translate(98.01193576388889 53.79340277777778)"/><use xlink:href="#t" transform="matrix(1,0,0,1,4002,1292) translate(165.44900173611111 53.79340277777778)"/><use xlink:href="#j" transform="matrix(1,0,0,1,4002,1292) translate(20.723524305555543 86.05902777777777)"/><use xlink:href="#B" transform="matrix(1,0,0,1,4002,1292) translate(96.0056423611111 86.05902777777777)"/><use xlink:href="#x" transform="matrix(1,0,0,1,4002,1292) translate(146.89105902777777 86.05902777777777)"/><use xlink:href="#C" transform="matrix(1,0,0,1,4002,1292) translate(167.00564236111111 86.05902777777777)"/><use xlink:href="#D" transform="matrix(1,0,0,1,4002,1292) translate(235.0473090277778 86.05902777777777)"/><use xlink:href="#E" transform="matrix(1,0,0,1,4002,1292) translate(38.203125 117.46354166666667)"/><use xlink:href="#F" transform="matrix(1,0,0,1,4002,1292) translate(154.046875 117.46354166666667)"/><use xlink:href="#z" transform="matrix(1,0,0,1,4002,1292) translate(119.85416666666666 148.43854166666665)"/><path d="M3720 1089.37a6 6 0 0 1 6-6h288a6 6 0 0 1 6 6v124.08a6 6 0 0 1-6 6h-288a6 6 0 0 1-6-6z" stroke="#000" stroke-width="2" fill="#fff"/><use xlink:href="#s" transform="matrix(1,0,0,1,3732,1095.3658854166667) translate(102.36089409722223 21.52777777777778)"/><use xlink:href="#h" transform="matrix(1,0,0,1,3732,1095.3658854166667) translate(78.01193576388889 53.79340277777778)"/><use xlink:href="#t" transform="matrix(1,0,0,1,3732,1095.3658854166667) translate(145.44900173611111 53.79340277777778)"/><use xlink:href="#j" transform="matrix(1,0,0,1,3732,1095.3658854166667) translate(13.150607638888886 86.05902777777777)"/><use xlink:href="#u" transform="matrix(1,0,0,1,3732,1095.3658854166667) translate(88.43272569444444 86.05902777777777)"/><use xlink:href="#v" transform="matrix(1,0,0,1,3732,1095.3658854166667) translate(175.78689236111111 86.05902777777777)"/><use xlink:href="#w" transform="matrix(1,0,0,1,3732,1095.3658854166667) translate(13.921875 117.46354166666667)"/><use xlink:href="#x" transform="matrix(1,0,0,1,3732,1095.3658854166667) translate(105.11979166666667 117.46354166666667)"/><use xlink:href="#y" transform="matrix(1,0,0,1,3732,1095.3658854166667) translate(125.234375 117.46354166666667)"/><use xlink:href="#z" transform="matrix(1,0,0,1,3732,1095.3658854166667) translate(185.78645833333334 117.46354166666667)"/><path d="M3567.07 527.9v59.82a6 6 0 0 1-6 6H2876a6 6 0 0 0-6 6v43.93" stroke="#3a414a" fill="none"/><path d="M3567.54 527.9h-.95v-.5h.94z" stroke="#3a414a" stroke-width=".05" fill="#3a414a"/><path d="M2870 658.42l-4.64-14.27h9.28z" stroke="#3a414a" fill="#3a414a"/><path d="M3567.07 527.9v59.82a6 6 0 0 1-6 6h-258a6 6 0 0 0-6 6v32" stroke="#3a414a" fill="none"/><path d="M3567.54 527.9h-.95v-.5h.94z" stroke="#3a414a" stroke-width=".05" fill="#3a414a"/><path d="M3297.07 646.5l-4.64-14.27h9.27z" stroke="#3a414a" fill="#3a414a"/><path d="M3520 655.1a6 6 0 0 1 6-6h328a6 6 0 0 1 6 6v108a6 6 0 0 1-6 6h-328a6 6 0 0 1-6-6z" stroke="#000" stroke-width="2" fill="#fff"/><g><use xlink:href="#G" transform="matrix(1,0,0,1,3532,661.1142388797687) translate(101.51128472222221 24.52777777777778)"/><use xlink:href="#h" transform="matrix(1,0,0,1,3532,661.1142388797687) translate(98.01193576388889 56.79340277777778)"/><use xlink:href="#i" transform="matrix(1,0,0,1,3532,661.1142388797687) translate(165.44900173611111 56.79340277777778)"/><use xlink:href="#j" transform="matrix(1,0,0,1,3532,661.1142388797687) translate(2.2165798611111143 89.05902777777777)"/><use xlink:href="#H" transform="matrix(1,0,0,1,3532,661.1142388797687) translate(77.49869791666667 89.05902777777777)"/><use xlink:href="#I" transform="matrix(1,0,0,1,3532,661.1142388797687) translate(213.58810763888889 89.05902777777777)"/></g><path d="M3940 655.1a6 6 0 0 1 6-6h328a6 6 0 0 1 6 6v108a6 6 0 0 1-6 6h-328a6 6 0 0 1-6-6z" stroke="#000" stroke-width="2" fill="#fff"/><g><use xlink:href="#J" transform="matrix(1,0,0,1,3952,661.1142388797687) translate(83.76497395833334 24.52777777777778)"/><use xlink:href="#o" transform="matrix(1,0,0,1,3952,661.1142388797687) translate(78.00434027777777 56.79340277777778)"/><use xlink:href="#K" transform="matrix(1,0,0,1,3952,661.1142388797687) translate(150.70399305555554 56.79340277777778)"/><use xlink:href="#j" transform="matrix(1,0,0,1,3952,661.1142388797687) translate(30.596571180555543 89.05902777777777)"/><use xlink:href="#L" transform="matrix(1,0,0,1,3952,661.1142388797687) translate(105.8786892361111 89.05902777777777)"/><use xlink:href="#M" transform="matrix(1,0,0,1,3952,661.1142388797687) translate(182.71245659722223 89.05902777777777)"/></g><path d="M4310 846a6 6 0 0 1 6-6h188a6 6 0 0 1 6 6v128a6 6 0 0 1-6 6h-188a6 6 0 0 1-6-6z" stroke="#000" stroke-width="2" fill="#fff"/><g><use xlink:href="#N" transform="matrix(1,0,0,1,4322,852) translate(18.6857638888889 32.40277777777778)"/><use xlink:href="#b" transform="matrix(1,0,0,1,4322,852) translate(28.011935763888886 64.66840277777777)"/><use xlink:href="#O" transform="matrix(1,0,0,1,4322,852) translate(95.44900173611111 64.66840277777777)"/><use xlink:href="#e" transform="matrix(1,0,0,1,4322,852) translate(24.08940972222223 96.93402777777777)"/><use xlink:href="#f" transform="matrix(1,0,0,1,4322,852) translate(99.37152777777779 96.93402777777777)"/></g><path d="M3950 846a6 6 0 0 1 6-6h308a6 6 0 0 1 6 6v140.55a6 6 0 0 1-6 6h-308a6 6 0 0 1-6-6z" stroke="#000" stroke-width="2" fill="#fff"/><g><use xlink:href="#P" transform="matrix(1,0,0,1,3962,852) translate(95.0431857638889 25.55902777777778)"/><use xlink:href="#b" transform="matrix(1,0,0,1,3962,852) translate(67.31271701388887 57.82465277777778)"/><use xlink:href="#Q" transform="matrix(1,0,0,1,3962,852) translate(134.7497829861111 57.82465277777778)"/><use xlink:href="#e" transform="matrix(1,0,0,1,3962,852) translate(33.37977430555554 90.09027777777777)"/><use xlink:href="#R" transform="matrix(1,0,0,1,3962,852) translate(108.6618923611111 90.09027777777777)"/><use xlink:href="#S" transform="matrix(1,0,0,1,3962,852) translate(171.16189236111111 90.09027777777777)"/><use xlink:href="#T" transform="matrix(1,0,0,1,3962,852) translate(19.083333333333314 121.49479166666667)"/><use xlink:href="#U" transform="matrix(1,0,0,1,3962,852) translate(94.65624999999997 121.49479166666667)"/><use xlink:href="#V" transform="matrix(1,0,0,1,3962,852) translate(181.56249999999997 121.49479166666667)"/></g><path d="M4060 1089.37a6 6 0 0 1 6-6h188a6 6 0 0 1 6 6v134.6a6 6 0 0 1-6 6h-188a6 6 0 0 1-6-6z" stroke="#000" stroke-width="2" fill="#fff"/><g><use xlink:href="#W" transform="matrix(1,0,0,1,4072,1095.3658854166667) translate(25.76041666666667 25.37152777777778)"/><use xlink:href="#b" transform="matrix(1,0,0,1,4072,1095.3658854166667) translate(28.011935763888886 57.63715277777778)"/><use xlink:href="#O" transform="matrix(1,0,0,1,4072,1095.3658854166667) translate(95.44900173611111 57.63715277777778)"/><use xlink:href="#e" transform="matrix(1,0,0,1,4072,1095.3658854166667) translate(4.629774305555557 89.90277777777777)"/><use xlink:href="#X" transform="matrix(1,0,0,1,4072,1095.3658854166667) translate(79.91189236111111 89.90277777777777)"/><use xlink:href="#Y" transform="matrix(1,0,0,1,4072,1095.3658854166667) translate(3.0364583333333286 121.30729166666667)"/><use xlink:href="#Z" transform="matrix(1,0,0,1,4072,1095.3658854166667) translate(69.265625 121.30729166666667)"/></g><path d="M3567.07 527.9v53.85a6 6 0 0 0 6 6h108.72a6 6 0 0 1 6 6v37.98" stroke="#3a414a" fill="none"/><path d="M3567.54 527.9h-.95v-.5h.94z" stroke="#3a414a" stroke-width=".05" fill="#3a414a"/><path d="M3687.8 646.5l-4.65-14.27h9.27z" stroke="#3a414a" fill="#3a414a"/><path d="M3567.07 527.9v53.85a6 6 0 0 0 6 6H4104a6 6 0 0 1 6 6v37.98" stroke="#3a414a" fill="none"/><path d="M3567.54 527.9h-.95v-.5h.94z" stroke="#3a414a" stroke-width=".05" fill="#3a414a"/><path d="M4110 646.5l-4.64-14.27h9.28z" stroke="#3a414a" fill="#3a414a"/><path d="M4110 770.6v52.02" stroke="#3a414a" fill="none"/><path d="M4110.48 770.63h-.95v-.52h.95z" stroke="#3a414a" stroke-width=".05" fill="#3a414a"/><path d="M4110 837.38l-4.64-14.26h9.28z" stroke="#3a414a" fill="#3a414a"/><path d="M4110 770.6v27.96a6 6 0 0 0 6 6h288a6 6 0 0 1 6 6v12.06" stroke="#3a414a" fill="none"/><path d="M4110.48 770.63h-.95v-.52h.95z" stroke="#3a414a" stroke-width=".05" fill="#3a414a"/><path d="M4410 837.38l-4.64-14.26h9.28z" stroke="#3a414a" fill="#3a414a"/><path d="M4110 994.05v37.9a6 6 0 0 0 6 6h38a6 6 0 0 1 6 6V1066" stroke="#3a414a" fill="none"/><path d="M4110.48 994.06h-.95v-.5h.95z" stroke="#3a414a" stroke-width=".05" fill="#3a414a"/><path d="M4160 1080.75l-4.64-14.27h9.28z" stroke="#3a414a" fill="#3a414a"/><path d="M4110 994.05v37.9a6 6 0 0 1-6 6h-228a6 6 0 0 0-6 6V1066" stroke="#3a414a" fill="none"/><path d="M4110.48 994.06h-.95v-.5h.95z" stroke="#3a414a" stroke-width=".05" fill="#3a414a"/><path d="M3870 1080.75l-4.64-14.27h9.28z" stroke="#3a414a" fill="#3a414a"/><path d="M4160 1231.47v31.15" stroke="#3a414a" fill="none"/><path d="M4160.48 1231.5h-.95v-.53h.95z" stroke="#3a414a" stroke-width=".05" fill="#3a414a"/><path d="M4160 1277.38l-4.64-14.26h9.28z" stroke="#3a414a" fill="#3a414a"/><path d="M3297.07 794.46v16.02a6 6 0 0 1-6 6H2876a6 6 0 0 0-6 6v.14" stroke="#3a414a" fill="none"/><path d="M3297.54 794.47h-.95v-.5h.94z" stroke="#3a414a" stroke-width=".05" fill="#3a414a"/><path d="M2870 837.38l-4.64-14.26h9.28z" stroke="#3a414a" fill="#3a414a"/><path d="M3127.07 846a6 6 0 0 1 6-6h328a6 6 0 0 1 6 6v157.98a6 6 0 0 1-6 6h-328a6 6 0 0 1-6-6z" stroke="#000" stroke-width="2" fill="#fff"/><g><use xlink:href="#A" transform="matrix(1,0,0,1,3139.0688711694806,852) translate(129.97265625 21.52777777777778)"/><use xlink:href="#h" transform="matrix(1,0,0,1,3139.0688711694806,852) translate(98.01193576388889 53.79340277777778)"/><use xlink:href="#t" transform="matrix(1,0,0,1,3139.0688711694806,852) translate(165.44900173611111 53.79340277777778)"/><use xlink:href="#j" transform="matrix(1,0,0,1,3139.0688711694806,852) translate(20.723524305555543 86.05902777777777)"/><use xlink:href="#B" transform="matrix(1,0,0,1,3139.0688711694806,852) translate(96.0056423611111 86.05902777777777)"/><use xlink:href="#x" transform="matrix(1,0,0,1,3139.0688711694806,852) translate(146.89105902777777 86.05902777777777)"/><use xlink:href="#C" transform="matrix(1,0,0,1,3139.0688711694806,852) translate(167.00564236111111 86.05902777777777)"/><use xlink:href="#D" transform="matrix(1,0,0,1,3139.0688711694806,852) translate(235.0473090277778 86.05902777777777)"/><use xlink:href="#E" transform="matrix(1,0,0,1,3139.0688711694806,852) translate(38.203125 117.46354166666667)"/><use xlink:href="#F" transform="matrix(1,0,0,1,3139.0688711694806,852) translate(154.046875 117.46354166666667)"/><use xlink:href="#z" transform="matrix(1,0,0,1,3139.0688711694806,852) translate(119.85416666666666 148.43854166666665)"/></g><path d="M3297.07 794.46v28.16" stroke="#3a414a" fill="none"/><path d="M3297.54 794.47h-.95v-.5h.94z" stroke="#3a414a" stroke-width=".05" fill="#3a414a"/><path d="M3297.07 837.38l-4.64-14.26h9.27z" stroke="#3a414a" fill="#3a414a"/><path d="M3538.53 846a6 6 0 0 1 6-6h328a6 6 0 0 1 6 6v157.98a6 6 0 0 1-6 6h-328a6 6 0 0 1-6-6z" stroke="#000" stroke-width="2" fill="#fff"/><g><use xlink:href="#aa" transform="matrix(1,0,0,1,3550.53443558474,852) translate(129.97265625 21.52777777777778)"/><use xlink:href="#h" transform="matrix(1,0,0,1,3550.53443558474,852) translate(98.01193576388889 53.79340277777778)"/><use xlink:href="#t" transform="matrix(1,0,0,1,3550.53443558474,852) translate(165.44900173611111 53.79340277777778)"/><use xlink:href="#j" transform="matrix(1,0,0,1,3550.53443558474,852) translate(20.723524305555543 86.05902777777777)"/><use xlink:href="#B" transform="matrix(1,0,0,1,3550.53443558474,852) translate(96.0056423611111 86.05902777777777)"/><use xlink:href="#x" transform="matrix(1,0,0,1,3550.53443558474,852) translate(146.89105902777777 86.05902777777777)"/><use xlink:href="#C" transform="matrix(1,0,0,1,3550.53443558474,852) translate(167.00564236111111 86.05902777777777)"/><use xlink:href="#D" transform="matrix(1,0,0,1,3550.53443558474,852) translate(235.0473090277778 86.05902777777777)"/><use xlink:href="#E" transform="matrix(1,0,0,1,3550.53443558474,852) translate(38.203125 117.46354166666667)"/><use xlink:href="#F" transform="matrix(1,0,0,1,3550.53443558474,852) translate(154.046875 117.46354166666667)"/><use xlink:href="#z" transform="matrix(1,0,0,1,3550.53443558474,852) translate(119.85416666666666 148.43854166666665)"/></g><path d="M3690 770.6v52.02" stroke="#3a414a" fill="none"/><path d="M3690.47 770.63h-.94v-.52h.94z" stroke="#3a414a" stroke-width=".05" fill="#3a414a"/><path d="M3690 837.38l-4.64-14.26h9.28z" stroke="#3a414a" fill="#3a414a"/><defs><path d="M49 0l509-1490h400L1480 0h-339l-115-346H497L386 0H49zm524-585h374c-75-213-124-402-192-666-66 268-110 453-182 666" id="ab"/><path d="M128 418v-1536h295v188h14c41-89 129-202 319-202 248 0 453 193 453 575 0 372-197 576-455 576-183 0-275-108-317-198h-9v597H128zm534-640c156 0 240-139 240-336 0-196-83-334-240-334-154 0-241 131-241 334 0 202 88 336 241 336" id="ac"/><g id="a"><use transform="matrix(0.010850694444444444,0,0,0.010850694444444444,0,0)" xlink:href="#ab"/><use transform="matrix(0.010850694444444444,0,0,0.010850694444444444,16.590711805555554,0)" xlink:href="#ac"/><use transform="matrix(0.010850694444444444,0,0,0.010850694444444444,30.59895833333333,0)" xlink:href="#ac"/></g><path d="M572 22C302 22 117-98 78-306l279-48c29 105 101 156 224 156 114 0 185-48 185-115 0-118-228-130-337-155-215-49-322-150-322-317 0-215 187-347 470-347 265 0 424 116 466 298l-266 47c-24-76-87-130-196-130-98 0-174 46-174 113 0 56 38 95 144 117l201 40c216 44 320 143 320 302 0 220-207 367-500 367" id="ad"/><path d="M683-1118v229H474v562c0 71 29 104 102 104 23 0 73-7 95-13l43 225C647 9 580 16 520 16 296 16 174-96 174-301v-588H20v-229h154v-266h300v266h209" id="ae"/><path d="M440 22C227 22 68-92 68-313c0-250 202-322 422-343 195-21 271-24 271-105 0-95-63-149-175-149-116 0-187 57-211 129l-275-46c57-194 237-305 487-305 240 0 474 108 474 379V0H777v-155h-10C713-51 605 22 440 22zm85-211c140 0 238-93 238-211v-121c-37 26-156 42-222 51-111 16-185 59-185 149 0 87 70 132 169 132" id="af"/><path d="M633 22C291 22 81-200 81-553c0-345 210-579 537-579 292 0 525 185 525 567v84H378c7 183 109 277 260 277 105 0 184-46 216-132l272 51C1071-99 893 22 633 22zM380-669h474c-15-146-94-237-233-237-143 0-229 99-241 237" id="ag"/><path d="M342-723c-98 0-173-75-173-172s75-172 173-172 173 75 173 172-75 172-173 172zm0 742c-98 0-173-75-173-172s75-172 173-172 173 75 173 172S440 19 342 19" id="ah"/><g id="b"><use transform="matrix(0.010850694444444444,0,0,0.010850694444444444,0,0)" xlink:href="#ad"/><use transform="matrix(0.010850694444444444,0,0,0.010850694444444444,12.445746527777777,0)" xlink:href="#ae"/><use transform="matrix(0.010850694444444444,0,0,0.010850694444444444,20.692274305555557,0)" xlink:href="#af"/><use transform="matrix(0.010850694444444444,0,0,0.010850694444444444,33.59375,0)" xlink:href="#ae"/><use transform="matrix(0.010850694444444444,0,0,0.010850694444444444,41.51475694444445,0)" xlink:href="#ag"/><use transform="matrix(0.010850694444444444,0,0,0.010850694444444444,54.75260416666667,0)" xlink:href="#ah"/></g><path d="M677 24c-213 0-288-135-325-197h-20V0H158v-1490h180v551h14c37-59 106-193 324-193 279 0 474 222 474 576 0 356-194 580-473 580zm-27-161c209 0 317-186 317-421 0-232-105-413-317-413-206 0-314 166-314 413 0 249 111 421 314 421" id="ai"/><path d="M613 24c-304 0-509-231-509-576 0-350 205-580 509-580 305 0 511 230 511 580 0 345-206 576-511 576zm0-161c226 0 329-195 329-415 0-222-103-419-329-419-223 0-326 196-326 419 0 220 103 415 326 415" id="aj"/><path d="M158 0v-1490h180v865h22l478-493h223L593-638 1096 0H865L456-523 338-412V0H158" id="ak"/><path d="M538 24C308 24 148-78 108-271l171-41c32 123 123 178 257 178 156 0 256-77 256-169 0-77-54-128-164-154l-186-44c-203-48-300-148-300-305 0-192 176-326 414-326 230 0 351 112 402 269l-163 42c-31-80-94-158-238-158-133 0-233 69-233 162 0 83 57 129 188 160l169 40c203 48 298 149 298 302 0 196-179 339-441 339" id="al"/><path d="M128 359l88-567h206L266 359H128" id="am"/><g id="c"><use transform="matrix(0.010416666666666668,0,0,0.010416666666666668,0,0)" xlink:href="#ai"/><use transform="matrix(0.010416666666666668,0,0,0.010416666666666668,13.062500000000002,0)" xlink:href="#aj"/><use transform="matrix(0.010416666666666668,0,0,0.010416666666666668,25.854166666666668,0)" xlink:href="#aj"/><use transform="matrix(0.010416666666666668,0,0,0.010416666666666668,38.64583333333334,0)" xlink:href="#ak"/><use transform="matrix(0.010416666666666668,0,0,0.010416666666666668,50.35416666666668,0)" xlink:href="#al"/><use transform="matrix(0.010416666666666668,0,0,0.010416666666666668,61.61458333333334,0)" xlink:href="#am"/></g><path d="M628 24c-324 0-524-230-524-574 0-343 198-582 503-582 237 0 487 146 487 559v75H286c9 234 145 362 343 362 132 0 231-58 273-172l174 48C1024-91 857 24 628 24zM287-650h624c-17-190-120-322-304-322-192 0-309 151-320 322" id="an"/><path d="M471 26C259 26 90-98 90-318c0-256 228-303 435-329 202-27 287-16 287-108 0-139-79-219-234-219-161 0-248 86-283 164l-173-57c86-203 278-265 451-265 150 0 419 46 419 395V0H815v-152h-12C765-73 660 26 471 26zm31-159c199 0 310-134 310-271v-155c-30 35-226 55-295 64-131 17-246 59-246 186 0 116 97 176 231 176" id="ao"/><path d="M158 0v-1118h174v172h12c41-113 157-188 290-188 26 0 70 2 91 3v181c-11-2-60-10-108-10-161 0-279 109-279 260V0H158" id="ap"/><path d="M613 24c-304 0-509-231-509-576 0-350 205-580 509-580 216 0 392 114 453 309l-173 49c-33-115-133-197-280-197-223 0-326 196-326 419 0 220 103 415 326 415 150 0 252-85 285-206l172 49C1010-95 832 24 613 24" id="aq"/><path d="M338-670V0H158v-1490h180v566c73-149 190-208 336-208 226 0 379 139 379 422V0H872v-695c0-172-96-275-252-275-161 0-282 109-282 300" id="ar"/><path d="M98-1322v-168h1126v168H757V0H567v-1322H98" id="as"/><path d="M158 0v-1118h175l1 205c55-151 181-225 313-225 147 0 245 90 285 228 53-141 190-228 352-228 194 0 352 125 352 384V0h-181v-749c0-161-105-225-225-225-151 0-243 103-243 244V0H807v-767c0-124-93-207-219-207-131 0-250 92-250 270V0H158" id="at"/><g id="d"><use transform="matrix(0.010416666666666668,0,0,0.010416666666666668,0,0)" xlink:href="#al"/><use transform="matrix(0.010416666666666668,0,0,0.010416666666666668,11.260416666666668,0)" xlink:href="#an"/><use transform="matrix(0.010416666666666668,0,0,0.010416666666666668,23.906250000000004,0)" xlink:href="#ao"/><use transform="matrix(0.010416666666666668,0,0,0.010416666666666668,35.88541666666667,0)" xlink:href="#ap"/><use transform="matrix(0.010416666666666668,0,0,0.010416666666666668,43.56250000000001,0)" xlink:href="#aq"/><use transform="matrix(0.010416666666666668,0,0,0.010416666666666668,55.75000000000001,0)" xlink:href="#ar"/><use transform="matrix(0.010416666666666668,0,0,0.010416666666666668,66.90625,0)" xlink:href="#as"/><use transform="matrix(0.010416666666666668,0,0,0.010416666666666668,79.01041666666666,0)" xlink:href="#an"/><use transform="matrix(0.010416666666666668,0,0,0.010416666666666668,91.44791666666666,0)" xlink:href="#ap"/><use transform="matrix(0.010416666666666668,0,0,0.010416666666666668,99.81249999999999,0)" xlink:href="#at"/></g><path d="M128 0v-1118h290v195h12c54-169 184-238 367-200v268c-27-8-86-15-130-15-138 0-239 95-239 234V0H128" id="au"/><path d="M628 22C291 22 81-210 81-554c0-346 210-578 547-578 336 0 547 232 547 578 0 344-211 576-547 576zm0-236c160 0 242-146 242-341 0-197-82-341-242-341S387-753 387-555c0 195 81 341 241 341" id="av"/><g id="e"><use transform="matrix(0.010850694444444444,0,0,0.010850694444444444,0,0)" xlink:href="#ac"/><use transform="matrix(0.010850694444444444,0,0,0.010850694444444444,14.008246527777777,0)" xlink:href="#au"/><use transform="matrix(0.010850694444444444,0,0,0.010850694444444444,22.51519097222222,0)" xlink:href="#av"/><use transform="matrix(0.010850694444444444,0,0,0.010850694444444444,36.14366319444444,0)" xlink:href="#ac"/><use transform="matrix(0.010850694444444444,0,0,0.010850694444444444,50.15190972222222,0)" xlink:href="#ad"/><use transform="matrix(0.010850694444444444,0,0,0.010850694444444444,62.59765625,0)" xlink:href="#ah"/></g><path d="M338-670V0H158v-1118h173l1 207c72-158 192-221 342-221 226 0 378 139 378 422V0H872v-695c0-172-96-275-252-275-161 0-282 109-282 300" id="aw"/><g id="f"><use transform="matrix(0.010850694444444444,0,0,0.010850694444444444,0,0)" xlink:href="#aw"/><use transform="matrix(0.010850694444444444,0,0,0.010850694444444444,13.129340277777777,0)" xlink:href="#aj"/><use transform="matrix(0.010850694444444444,0,0,0.010850694444444444,26.453993055555554,0)" xlink:href="#aw"/><use transform="matrix(0.010850694444444444,0,0,0.010850694444444444,39.58333333333333,0)" xlink:href="#an"/></g><path d="M75-1237v-253h1217v253H837V0H531v-1237H75" id="ax"/><path d="M120 396l69-226c123 42 245 23 254-107l8-60L31-1118h319c87 288 199 559 259 872 72-308 185-583 277-872h315L726 132c-68 181-186 294-410 294-79 0-153-13-196-30" id="ay"/><path d="M625 442c-280 0-454-114-503-274l258-72c28 63 97 128 243 128 153 0 246-69 246-216v-206h-23C805-108 717-16 536-16 284-16 81-191 81-561c0-378 208-571 456-571 188 0 280 113 321 202h13v-188h295V-9c0 303-226 451-541 451zm5-686c153 0 240-119 240-319 0-198-86-329-240-329-158 0-241 137-241 329 0 195 85 319 241 319" id="az"/><path d="M428-647V0H128v-1490h294v586c65-146 175-228 341-228 232 0 385 159 385 421V0H847v-659c0-139-76-222-202-222-128 0-217 86-217 234" id="aA"/><g id="g"><use transform="matrix(0.010850694444444444,0,0,0.010850694444444444,0,0)" xlink:href="#ax"/><use transform="matrix(0.010850694444444444,0,0,0.010850694444444444,13.444010416666666,0)" xlink:href="#ay"/><use transform="matrix(0.010850694444444444,0,0,0.010850694444444444,26.822916666666664,0)" xlink:href="#ac"/><use transform="matrix(0.010850694444444444,0,0,0.010850694444444444,40.83116319444444,0)" xlink:href="#av"/><use transform="matrix(0.010850694444444444,0,0,0.010850694444444444,54.459635416666664,0)" xlink:href="#az"/><use transform="matrix(0.010850694444444444,0,0,0.010850694444444444,68.50043402777777,0)" xlink:href="#au"/><use transform="matrix(0.010850694444444444,0,0,0.010850694444444444,77.24609375,0)" xlink:href="#af"/><use transform="matrix(0.010850694444444444,0,0,0.010850694444444444,90.14756944444444,0)" xlink:href="#ac"/><use transform="matrix(0.010850694444444444,0,0,0.010850694444444444,104.15581597222221,0)" xlink:href="#aA"/><use transform="matrix(0.010850694444444444,0,0,0.010850694444444444,117.61067708333333,0)" xlink:href="#ay"/></g><g id="h"><use transform="matrix(0.010850694444444444,0,0,0.010850694444444444,0,0)" xlink:href="#ad"/><use transform="matrix(0.010850694444444444,0,0,0.010850694444444444,12.445746527777777,0)" xlink:href="#ae"/><use transform="matrix(0.010850694444444444,0,0,0.010850694444444444,20.692274305555557,0)" xlink:href="#af"/><use transform="matrix(0.010850694444444444,0,0,0.010850694444444444,33.59375,0)" xlink:href="#ae"/><use transform="matrix(0.010850694444444444,0,0,0.010850694444444444,41.51475694444445,0)" xlink:href="#ag"/><use transform="matrix(0.010850694444444444,0,0,0.010850694444444444,54.75260416666667,0)" xlink:href="#ah"/></g><g id="i"><use transform="matrix(0.010850694444444444,0,0,0.010850694444444444,0,0)" xlink:href="#aw"/><use transform="matrix(0.010850694444444444,0,0,0.010850694444444444,13.129340277777777,0)" xlink:href="#aj"/><use transform="matrix(0.010850694444444444,0,0,0.010850694444444444,26.453993055555554,0)" xlink:href="#aw"/><use transform="matrix(0.010850694444444444,0,0,0.010850694444444444,39.58333333333333,0)" xlink:href="#an"/></g><g id="j"><use transform="matrix(0.010850694444444444,0,0,0.010850694444444444,0,0)" xlink:href="#ac"/><use transform="matrix(0.010850694444444444,0,0,0.010850694444444444,14.008246527777777,0)" xlink:href="#au"/><use transform="matrix(0.010850694444444444,0,0,0.010850694444444444,22.51519097222222,0)" xlink:href="#av"/><use transform="matrix(0.010850694444444444,0,0,0.010850694444444444,36.14366319444444,0)" xlink:href="#ac"/><use transform="matrix(0.010850694444444444,0,0,0.010850694444444444,50.15190972222222,0)" xlink:href="#ad"/><use transform="matrix(0.010850694444444444,0,0,0.010850694444444444,62.59765625,0)" xlink:href="#ah"/></g><path d="M481 0L54-1118h197c107 314 236 620 325 951 87-331 217-637 324-951h197L670 0H481" id="aB"/><path d="M158 0v-1118h180V0H158zm91-1301c-68 0-125-53-125-119s57-119 125-119c69 0 126 53 126 119s-57 119-126 119" id="aC"/><path d="M598-1118v154H368v674c0 100 37 144 132 144 23 0 62-6 92-12L629-6c-37 13-88 20-134 20-193 0-307-107-307-290v-688H20v-154h168v-266h180v266h230" id="aD"/><g id="k"><use transform="matrix(0.010850694444444444,0,0,0.010850694444444444,0,0)" xlink:href="#aB"/><use transform="matrix(0.010850694444444444,0,0,0.010850694444444444,12.38064236111111,0)" xlink:href="#ao"/><use transform="matrix(0.010850694444444444,0,0,0.010850694444444444,24.85894097222222,0)" xlink:href="#ap"/><use transform="matrix(0.010850694444444444,0,0,0.010850694444444444,33.57204861111111,0)" xlink:href="#aC"/><use transform="matrix(0.010850694444444444,0,0,0.010850694444444444,38.95399305555555,0)" xlink:href="#ao"/><use transform="matrix(0.010850694444444444,0,0,0.010850694444444444,51.43229166666666,0)" xlink:href="#aw"/><use transform="matrix(0.010850694444444444,0,0,0.010850694444444444,64.56163194444443,0)" xlink:href="#aD"/><use transform="matrix(0.010850694444444444,0,0,0.010850694444444444,71.8315972222222,0)" xlink:href="#am"/></g><path d="M338-1490V0H158v-1490h180" id="aE"/><path d="M577 24c-279 0-473-224-473-580 0-354 195-576 474-576 218 0 287 134 324 193h14v-551h180V0H922v-173h-20C865-111 790 24 577 24zm27-161c203 0 314-172 314-421 0-247-108-413-314-413-212 0-317 181-317 413 0 235 108 421 317 421" id="aF"/><g id="l"><use transform="matrix(0.010850694444444444,0,0,0.010850694444444444,0,0)" xlink:href="#aq"/><use transform="matrix(0.010850694444444444,0,0,0.010850694444444444,12.6953125,0)" xlink:href="#ar"/><use transform="matrix(0.010850694444444444,0,0,0.010850694444444444,25.83550347222222,0)" xlink:href="#aC"/><use transform="matrix(0.010850694444444444,0,0,0.010850694444444444,31.217447916666664,0)" xlink:href="#aE"/><use transform="matrix(0.010850694444444444,0,0,0.010850694444444444,36.59939236111111,0)" xlink:href="#aF"/><use transform="matrix(0.010850694444444444,0,0,0.010850694444444444,50.20616319444444,0)" xlink:href="#an"/><use transform="matrix(0.010850694444444444,0,0,0.010850694444444444,63.16189236111111,0)" xlink:href="#ap"/><use transform="matrix(0.010850694444444444,0,0,0.010850694444444444,71.875,0)" xlink:href="#aw"/><use transform="matrix(0.010850694444444444,0,0,0.010850694444444444,85.00434027777777,0)" xlink:href="#am"/></g><path d="M295 13c-75 0-135-60-135-135s60-135 135-135 135 60 135 135S370 13 295 13" id="aG"/><path d="M158 418v-1536h174v179h20c37-59 106-193 324-193 279 0 474 222 474 576 0 356-194 580-473 580-213 0-288-135-325-197h-14v591H158zm492-555c209 0 317-186 317-421 0-232-105-413-317-413-206 0-314 166-314 413 0 249 111 421 314 421" id="aH"/><g id="m"><use transform="matrix(0.010850694444444444,0,0,0.010850694444444444,0,0)" xlink:href="#aG"/><use transform="matrix(0.010850694444444444,0,0,0.010850694444444444,6.401909722222222,0)" xlink:href="#aG"/><use transform="matrix(0.010850694444444444,0,0,0.010850694444444444,12.803819444444445,0)" xlink:href="#aG"/><use transform="matrix(0.010850694444444444,0,0,0.010850694444444444,19.205729166666668,0)" xlink:href="#aH"/><use transform="matrix(0.010850694444444444,0,0,0.010850694444444444,32.8125,0)" xlink:href="#ap"/><use transform="matrix(0.010850694444444444,0,0,0.010850694444444444,40.80946180555555,0)" xlink:href="#aj"/><use transform="matrix(0.010850694444444444,0,0,0.010850694444444444,54.13411458333333,0)" xlink:href="#aH"/><use transform="matrix(0.010850694444444444,0,0,0.010850694444444444,67.74088541666666,0)" xlink:href="#al"/></g><path d="M537 19C279 19 81-185 81-557c0-382 206-575 454-575 190 0 278 113 318 202h10v-560h300V0H868v-179h-15C812-89 719 19 537 19zm92-241c153 0 240-134 240-336 0-203-86-334-240-334-158 0-240 138-240 334 0 197 84 336 240 336" id="aI"/><path d="M135 0v-1490h980v253H440v416h609v249H440V0H135" id="aJ"/><path d="M128 0v-1118h278l12 217c60-163 185-234 319-234 143 0 236 81 288 251 63-172 205-251 359-251 205 0 357 138 357 381V0h-301v-697c0-126-76-187-177-187-114 0-184 79-184 196V0H789v-705c0-109-72-179-174-179-106 0-187 74-187 208V0H128" id="aK"/><g id="n"><use transform="matrix(0.010850694444444444,0,0,0.010850694444444444,0,0)" xlink:href="#ab"/><use transform="matrix(0.010850694444444444,0,0,0.010850694444444444,16.080729166666664,0)" xlink:href="#aI"/><use transform="matrix(0.010850694444444444,0,0,0.010850694444444444,30.088975694444443,0)" xlink:href="#aI"/><use transform="matrix(0.010850694444444444,0,0,0.010850694444444444,44.09722222222222,0)" xlink:href="#au"/><use transform="matrix(0.010850694444444444,0,0,0.010850694444444444,52.604166666666664,0)" xlink:href="#ag"/><use transform="matrix(0.010850694444444444,0,0,0.010850694444444444,65.84201388888889,0)" xlink:href="#ad"/><use transform="matrix(0.010850694444444444,0,0,0.010850694444444444,78.28776041666666,0)" xlink:href="#ad"/><use transform="matrix(0.010850694444444444,0,0,0.010850694444444444,90.73350694444441,0)" xlink:href="#aJ"/><use transform="matrix(0.010850694444444444,0,0,0.010850694444444444,103.13585069444441,0)" xlink:href="#av"/><use transform="matrix(0.010850694444444444,0,0,0.010850694444444444,116.76432291666666,0)" xlink:href="#au"/><use transform="matrix(0.010850694444444444,0,0,0.010850694444444444,125.9765625,0)" xlink:href="#aK"/></g><g id="o"><use transform="matrix(0.010850694444444444,0,0,0.010850694444444444,0,0)" xlink:href="#ad"/><use transform="matrix(0.010850694444444444,0,0,0.010850694444444444,12.445746527777777,0)" xlink:href="#ae"/><use transform="matrix(0.010850694444444444,0,0,0.010850694444444444,20.692274305555557,0)" xlink:href="#af"/><use transform="matrix(0.010850694444444444,0,0,0.010850694444444444,33.59375,0)" xlink:href="#ae"/><use transform="matrix(0.010850694444444444,0,0,0.010850694444444444,41.51475694444445,0)" xlink:href="#ag"/><use transform="matrix(0.010850694444444444,0,0,0.010850694444444444,54.75260416666667,0)" xlink:href="#ah"/></g><path d="M678-1118v154H420V0H240v-964H20v-154h220v-149c0-194 155-293 318-293 85 0 141 18 168 30l-50 154c-19-6-47-17-97-17-111 0-159 58-159 166v109h258" id="aL"/><g id="p"><use transform="matrix(0.010850694444444444,0,0,0.010850694444444444,0,0)" xlink:href="#aL"/><use transform="matrix(0.010850694444444444,0,0,0.010850694444444444,7.573784722222222,0)" xlink:href="#aj"/><use transform="matrix(0.010850694444444444,0,0,0.010850694444444444,20.8984375,0)" xlink:href="#ap"/><use transform="matrix(0.010850694444444444,0,0,0.010850694444444444,29.61154513888889,0)" xlink:href="#at"/><use transform="matrix(0.010850694444444444,0,0,0.010850694444444444,49.07769097222221,0)" xlink:href="#am"/></g><g id="q"><use transform="matrix(0.010850694444444444,0,0,0.010850694444444444,0,0)" xlink:href="#an"/><use transform="matrix(0.010850694444444444,0,0,0.010850694444444444,12.955729166666666,0)" xlink:href="#ap"/><use transform="matrix(0.010850694444444444,0,0,0.010850694444444444,21.668836805555554,0)" xlink:href="#ap"/><use transform="matrix(0.010850694444444444,0,0,0.010850694444444444,29.665798611111104,0)" xlink:href="#aj"/><use transform="matrix(0.010850694444444444,0,0,0.010850694444444444,42.990451388888886,0)" xlink:href="#ap"/><use transform="matrix(0.010850694444444444,0,0,0.010850694444444444,51.35633680555556,0)" xlink:href="#al"/></g><path d="M52 0l541-1490h220L1361 0h-200l-149-416H398L254 0H52zm404-582h497c-103-290-145-390-251-756-108 377-145 460-246 756" id="aM"/><g id="r"><use transform="matrix(0.010850694444444444,0,0,0.010850694444444444,0,0)" xlink:href="#aj"/><use transform="matrix(0.010850694444444444,0,0,0.010850694444444444,13.324652777777777,0)" xlink:href="#aw"/><use transform="matrix(0.010850694444444444,0,0,0.010850694444444444,26.453993055555554,0)" xlink:href="#aM"/><use transform="matrix(0.010850694444444444,0,0,0.010850694444444444,41.78602430555556,0)" xlink:href="#aF"/><use transform="matrix(0.010850694444444444,0,0,0.010850694444444444,55.392795138888886,0)" xlink:href="#aF"/></g><path d="M135 0v-1490h591c327 0 492 160 492 383 0 177-115 286-268 320v15c168 8 326 140 326 361 0 236-176 411-512 411H135zm305-251h264c179 0 258-76 258-189 0-125-97-215-250-215H440v404zm0-613h241c131 0 228-74 228-194 0-109-79-183-222-183H440v377" id="aN"/><path d="M513 14c-232 0-385-159-385-421v-711h300v659c0 139 76 222 202 222 127 0 217-86 217-234v-647h301V0H864l-4-232C797-74 683 14 513 14" id="aO"/><path d="M428-647V0H128v-1118h283l4 231c63-156 176-245 348-245 232 0 384 159 384 421V0H847v-659c0-139-76-222-202-222-128 0-217 86-217 234" id="aP"/><g id="s"><use transform="matrix(0.010850694444444444,0,0,0.010850694444444444,0,0)" xlink:href="#aN"/><use transform="matrix(0.010850694444444444,0,0,0.010850694444444444,14.702690972222221,0)" xlink:href="#aO"/><use transform="matrix(0.010850694444444444,0,0,0.010850694444444444,28.53732638888889,0)" xlink:href="#ae"/><use transform="matrix(0.010850694444444444,0,0,0.010850694444444444,35.89409722222222,0)" xlink:href="#ae"/><use transform="matrix(0.010850694444444444,0,0,0.010850694444444444,43.81510416666667,0)" xlink:href="#av"/><use transform="matrix(0.010850694444444444,0,0,0.010850694444444444,57.4435763888889,0)" xlink:href="#aP"/></g><g id="t"><use transform="matrix(0.010850694444444444,0,0,0.010850694444444444,0,0)" xlink:href="#aw"/><use transform="matrix(0.010850694444444444,0,0,0.010850694444444444,13.129340277777777,0)" xlink:href="#aj"/><use transform="matrix(0.010850694444444444,0,0,0.010850694444444444,26.453993055555554,0)" xlink:href="#aw"/><use transform="matrix(0.010850694444444444,0,0,0.010850694444444444,39.58333333333333,0)" xlink:href="#an"/></g><path d="M783 20c-382 0-661-292-661-764 0-473 279-766 661-766 302 0 548 182 601 489h-190c-42-204-217-313-411-313-268 0-476 208-476 590 0 381 209 588 476 588 195 0 369-110 411-313h190c-52 303-296 489-601 489" id="aQ"/><g id="u"><use transform="matrix(0.010416666666666668,0,0,0.010416666666666668,0,0)" xlink:href="#aj"/><use transform="matrix(0.010416666666666668,0,0,0.010416666666666668,12.791666666666668,0)" xlink:href="#aw"/><use transform="matrix(0.010416666666666668,0,0,0.010416666666666668,25.395833333333336,0)" xlink:href="#aQ"/><use transform="matrix(0.010416666666666668,0,0,0.010416666666666668,40.97916666666667,0)" xlink:href="#aE"/><use transform="matrix(0.010416666666666668,0,0,0.010416666666666668,46.145833333333336,0)" xlink:href="#aC"/><use transform="matrix(0.010416666666666668,0,0,0.010416666666666668,51.31249999999999,0)" xlink:href="#aq"/><use transform="matrix(0.010416666666666668,0,0,0.010416666666666668,63.5,0)" xlink:href="#ak"/><use transform="matrix(0.010416666666666668,0,0,0.010416666666666668,75.20833333333333,0)" xlink:href="#am"/></g><g id="v"><use transform="matrix(0.010416666666666668,0,0,0.010416666666666668,0,0)" xlink:href="#aq"/><use transform="matrix(0.010416666666666668,0,0,0.010416666666666668,12.187500000000002,0)" xlink:href="#ar"/><use transform="matrix(0.010416666666666668,0,0,0.010416666666666668,24.802083333333336,0)" xlink:href="#aC"/><use transform="matrix(0.010416666666666668,0,0,0.010416666666666668,29.968750000000004,0)" xlink:href="#aE"/><use transform="matrix(0.010416666666666668,0,0,0.010416666666666668,35.13541666666667,0)" xlink:href="#aF"/><use transform="matrix(0.010416666666666668,0,0,0.010416666666666668,48.19791666666667,0)" xlink:href="#ap"/><use transform="matrix(0.010416666666666668,0,0,0.010416666666666668,55.87500000000001,0)" xlink:href="#an"/><use transform="matrix(0.010416666666666668,0,0,0.010416666666666668,68.31250000000001,0)" xlink:href="#aw"/><use transform="matrix(0.010416666666666668,0,0,0.010416666666666668,80.91666666666669,0)" xlink:href="#am"/></g><g id="w"><use transform="matrix(0.010416666666666668,0,0,0.010416666666666668,0,0)" xlink:href="#aF"/><use transform="matrix(0.010416666666666668,0,0,0.010416666666666668,13.062500000000002,0)" xlink:href="#aC"/><use transform="matrix(0.010416666666666668,0,0,0.010416666666666668,18.229166666666668,0)" xlink:href="#al"/><use transform="matrix(0.010416666666666668,0,0,0.010416666666666668,29.489583333333336,0)" xlink:href="#ao"/><use transform="matrix(0.010416666666666668,0,0,0.010416666666666668,41.46875,0)" xlink:href="#ai"/><use transform="matrix(0.010416666666666668,0,0,0.010416666666666668,54.53125,0)" xlink:href="#aE"/><use transform="matrix(0.010416666666666668,0,0,0.010416666666666668,59.697916666666664,0)" xlink:href="#an"/><use transform="matrix(0.010416666666666668,0,0,0.010416666666666668,72.13541666666667,0)" xlink:href="#aF"/></g><path d="M226-283v-166h904v166H226zm0-434v-166h904v166H226" id="aR"/><use transform="matrix(0.010416666666666668,0,0,0.010416666666666668,0,0)" xlink:href="#aR" id="x"/><g id="y"><use transform="matrix(0.010416666666666668,0,0,0.010416666666666668,0,0)" xlink:href="#aL"/><use transform="matrix(0.010416666666666668,0,0,0.010416666666666668,7.562500000000001,0)" xlink:href="#ao"/><use transform="matrix(0.010416666666666668,0,0,0.010416666666666668,19.541666666666668,0)" xlink:href="#aE"/><use transform="matrix(0.010416666666666668,0,0,0.010416666666666668,24.708333333333336,0)" xlink:href="#al"/><use transform="matrix(0.010416666666666668,0,0,0.010416666666666668,35.96875,0)" xlink:href="#an"/><use transform="matrix(0.010416666666666668,0,0,0.010416666666666668,48.40624999999999,0)" xlink:href="#am"/></g><g id="z"><use transform="matrix(0.010416666666666668,0,0,0.010416666666666668,0,0)" xlink:href="#aG"/><use transform="matrix(0.010416666666666668,0,0,0.010416666666666668,6.145833333333334,0)" xlink:href="#aG"/><use transform="matrix(0.010416666666666668,0,0,0.010416666666666668,12.291666666666668,0)" xlink:href="#aG"/><use transform="matrix(0.010416666666666668,0,0,0.010416666666666668,18.4375,0)" xlink:href="#aH"/><use transform="matrix(0.010416666666666668,0,0,0.010416666666666668,31.5,0)" xlink:href="#ap"/><use transform="matrix(0.010416666666666668,0,0,0.010416666666666668,39.177083333333336,0)" xlink:href="#aj"/><use transform="matrix(0.010416666666666668,0,0,0.010416666666666668,51.96874999999999,0)" xlink:href="#aH"/><use transform="matrix(0.010416666666666668,0,0,0.010416666666666668,65.03125,0)" xlink:href="#al"/></g><path d="M440-1490V0H135v-1490h305" id="aS"/><g id="A"><use transform="matrix(0.010850694444444444,0,0,0.010850694444444444,0,0)" xlink:href="#aS"/><use transform="matrix(0.010850694444444444,0,0,0.010850694444444444,6.239149305555555,0)" xlink:href="#aP"/><use transform="matrix(0.010850694444444444,0,0,0.010850694444444444,20.07378472222222,0)" xlink:href="#ac"/><use transform="matrix(0.010850694444444444,0,0,0.010850694444444444,34.08203125,0)" xlink:href="#aO"/><use transform="matrix(0.010850694444444444,0,0,0.010850694444444444,47.916666666666664,0)" xlink:href="#ae"/></g><path d="M140 405l46-156c120 36 205 19 263-150l32-93L54-1118h197c107 313 237 620 324 950 87-331 219-637 326-950h196L606 167c-68 178-176 259-334 259-64 0-113-12-132-21" id="aT"/><g id="B"><use transform="matrix(0.010416666666666668,0,0,0.010416666666666668,0,0)" xlink:href="#aD"/><use transform="matrix(0.010416666666666668,0,0,0.010416666666666668,7.395833333333336,0)" xlink:href="#aT"/><use transform="matrix(0.010416666666666668,0,0,0.010416666666666668,19.385416666666668,0)" xlink:href="#aH"/><use transform="matrix(0.010416666666666668,0,0,0.010416666666666668,32.44791666666667,0)" xlink:href="#an"/></g><path d="M232-923l-22-567h194l-22 567H232zm340 0l-22-567h194l-22 567H572" id="aU"/><path d="M65 0l393-574-370-544h210c88 136 192 297 267 435 67-142 176-302 264-435h206L661-564 1053 0H844c-94-144-206-310-287-458C484-308 366-142 273 0H65" id="aV"/><g id="C"><use transform="matrix(0.010416666666666668,0,0,0.010416666666666668,0,0)" xlink:href="#aU"/><use transform="matrix(0.010416666666666668,0,0,0.010416666666666668,9.937500000000002,0)" xlink:href="#aD"/><use transform="matrix(0.010416666666666668,0,0,0.010416666666666668,16.708333333333336,0)" xlink:href="#an"/><use transform="matrix(0.010416666666666668,0,0,0.010416666666666668,28.66666666666667,0)" xlink:href="#aV"/><use transform="matrix(0.010416666666666668,0,0,0.010416666666666668,40.72916666666667,0)" xlink:href="#aD"/><use transform="matrix(0.010416666666666668,0,0,0.010416666666666668,47.708333333333336,0)" xlink:href="#aU"/><use transform="matrix(0.010416666666666668,0,0,0.010416666666666668,55.89583333333334,0)" xlink:href="#am"/></g><path d="M537 14c-226 0-379-139-379-422v-710h180v695c0 172 97 275 253 275 160 0 281-109 281-300v-670h181V0H879v-209C806-46 684 14 537 14" id="aW"/><g id="D"><use transform="matrix(0.010416666666666668,0,0,0.010416666666666668,0,0)" xlink:href="#aB"/><use transform="matrix(0.010416666666666668,0,0,0.010416666666666668,11.885416666666668,0)" xlink:href="#ao"/><use transform="matrix(0.010416666666666668,0,0,0.010416666666666668,23.864583333333336,0)" xlink:href="#aE"/><use transform="matrix(0.010416666666666668,0,0,0.010416666666666668,29.031250000000004,0)" xlink:href="#aW"/><use transform="matrix(0.010416666666666668,0,0,0.010416666666666668,41.645833333333336,0)" xlink:href="#an"/><use transform="matrix(0.010416666666666668,0,0,0.010416666666666668,54.08333333333334,0)" xlink:href="#am"/></g><path d="M611 442c-248 0-391-105-460-228l146-94c47 65 117 165 314 165 178 0 307-82 307-266v-224h-17C863-141 792-18 576-18c-268 0-472-195-472-546 0-346 197-568 476-568 216 0 288 133 326 193h17v-179h175V29c0 289-215 413-487 413zm-5-620c203 0 314-146 314-390 0-237-108-403-314-403-213 0-319 180-319 403 0 230 109 390 319 390" id="aX"/><g id="E"><use transform="matrix(0.010416666666666668,0,0,0.010416666666666668,0,0)" xlink:href="#aj"/><use transform="matrix(0.010416666666666668,0,0,0.010416666666666668,12.791666666666668,0)" xlink:href="#aw"/><use transform="matrix(0.010416666666666668,0,0,0.010416666666666668,25.395833333333336,0)" xlink:href="#aQ"/><use transform="matrix(0.010416666666666668,0,0,0.010416666666666668,40.97916666666667,0)" xlink:href="#ar"/><use transform="matrix(0.010416666666666668,0,0,0.010416666666666668,53.59375000000001,0)" xlink:href="#ao"/><use transform="matrix(0.010416666666666668,0,0,0.010416666666666668,65.57291666666667,0)" xlink:href="#aw"/><use transform="matrix(0.010416666666666668,0,0,0.010416666666666668,78.17708333333334,0)" xlink:href="#aX"/><use transform="matrix(0.010416666666666668,0,0,0.010416666666666668,91.26041666666667,0)" xlink:href="#an"/><use transform="matrix(0.010416666666666668,0,0,0.010416666666666668,103.69791666666667,0)" xlink:href="#am"/></g><g id="F"><use transform="matrix(0.010416666666666668,0,0,0.010416666666666668,0,0)" xlink:href="#aH"/><use transform="matrix(0.010416666666666668,0,0,0.010416666666666668,13.062500000000002,0)" xlink:href="#aE"/><use transform="matrix(0.010416666666666668,0,0,0.010416666666666668,18.229166666666668,0)" xlink:href="#ao"/><use transform="matrix(0.010416666666666668,0,0,0.010416666666666668,30.208333333333336,0)" xlink:href="#aq"/><use transform="matrix(0.010416666666666668,0,0,0.010416666666666668,42.395833333333336,0)" xlink:href="#an"/><use transform="matrix(0.010416666666666668,0,0,0.010416666666666668,54.83333333333334,0)" xlink:href="#ar"/><use transform="matrix(0.010416666666666668,0,0,0.010416666666666668,67.44791666666667,0)" xlink:href="#aj"/><use transform="matrix(0.010416666666666668,0,0,0.010416666666666668,80.23958333333334,0)" xlink:href="#aE"/><use transform="matrix(0.010416666666666668,0,0,0.010416666666666668,85.40625000000001,0)" xlink:href="#aF"/><use transform="matrix(0.010416666666666668,0,0,0.010416666666666668,98.46875000000001,0)" xlink:href="#an"/><use transform="matrix(0.010416666666666668,0,0,0.010416666666666668,110.90625000000001,0)" xlink:href="#ap"/><use transform="matrix(0.010416666666666668,0,0,0.010416666666666668,117.60416666666669,0)" xlink:href="#am"/></g><path d="M681 22C323 22 94-145 85-462h297c10 151 131 226 296 226 163 0 271-77 271-190 0-102-95-149-257-189l-164-41c-252-61-403-188-403-405 0-269 236-449 560-449 330 0 546 183 551 445H941c-11-119-106-188-259-188-156 0-244 72-244 172-3 156 226 185 373 221 250 61 445 186 445 436 0 271-213 446-575 446" id="aY"/><path d="M628 22C291 22 81-210 81-554c0-346 210-578 547-578 265 0 455 142 497 372l-279 52c-25-116-99-188-215-188-160 0-244 139-244 341 0 200 84 341 244 341 116 0 193-74 217-195l279 51C1085-123 896 22 628 22" id="aZ"/><g id="G"><use transform="matrix(0.010850694444444444,0,0,0.010850694444444444,0,0)" xlink:href="#aY"/><use transform="matrix(0.010850694444444444,0,0,0.010850694444444444,14.55078125,0)" xlink:href="#ag"/><use transform="matrix(0.010850694444444444,0,0,0.010850694444444444,28.00564236111111,0)" xlink:href="#af"/><use transform="matrix(0.010850694444444444,0,0,0.010850694444444444,40.90711805555556,0)" xlink:href="#au"/><use transform="matrix(0.010850694444444444,0,0,0.010850694444444444,49.4140625,0)" xlink:href="#aZ"/><use transform="matrix(0.010850694444444444,0,0,0.010850694444444444,62.48914930555555,0)" xlink:href="#aA"/><use transform="matrix(0.010850694444444444,0,0,0.010850694444444444,76.32378472222223,0)" xlink:href="#aN"/><use transform="matrix(0.010850694444444444,0,0,0.010850694444444444,91.02647569444446,0)" xlink:href="#af"/><use transform="matrix(0.010850694444444444,0,0,0.010850694444444444,103.9279513888889,0)" xlink:href="#au"/></g><g id="H"><use transform="matrix(0.010850694444444444,0,0,0.010850694444444444,0,0)" xlink:href="#al"/><use transform="matrix(0.010850694444444444,0,0,0.010850694444444444,11.729600694444445,0)" xlink:href="#an"/><use transform="matrix(0.010850694444444444,0,0,0.010850694444444444,24.90234375,0)" xlink:href="#ao"/><use transform="matrix(0.010850694444444444,0,0,0.010850694444444444,37.380642361111114,0)" xlink:href="#ap"/><use transform="matrix(0.010850694444444444,0,0,0.010850694444444444,45.377604166666664,0)" xlink:href="#aq"/><use transform="matrix(0.010850694444444444,0,0,0.010850694444444444,58.072916666666664,0)" xlink:href="#ar"/><use transform="matrix(0.010850694444444444,0,0,0.010850694444444444,69.69401041666666,0)" xlink:href="#as"/><use transform="matrix(0.010850694444444444,0,0,0.010850694444444444,82.3025173611111,0)" xlink:href="#an"/><use transform="matrix(0.010850694444444444,0,0,0.010850694444444444,95.25824652777777,0)" xlink:href="#ap"/><use transform="matrix(0.010850694444444444,0,0,0.010850694444444444,103.97135416666666,0)" xlink:href="#at"/><use transform="matrix(0.010850694444444444,0,0,0.010850694444444444,123.4375,0)" xlink:href="#am"/></g><path d="M657 26c-323 0-524-166-541-416h195c15 169 171 246 346 246 202 0 356-106 356-265 5-203-294-238-475-293-239-73-380-191-380-389 0-252 224-419 512-419 294 0 499 171 508 396H992c-17-145-151-228-328-228-193 0-321 102-321 242 0 156 175 211 284 241l149 41c160 44 422 134 422 412 0 244-197 432-541 432" id="ba"/><g id="I"><use transform="matrix(0.010850694444444444,0,0,0.010850694444444444,0,0)" xlink:href="#aj"/><use transform="matrix(0.010850694444444444,0,0,0.010850694444444444,13.324652777777777,0)" xlink:href="#aw"/><use transform="matrix(0.010850694444444444,0,0,0.010850694444444444,26.453993055555554,0)" xlink:href="#ba"/><use transform="matrix(0.010850694444444444,0,0,0.010850694444444444,40.71180555555556,0)" xlink:href="#an"/><use transform="matrix(0.010850694444444444,0,0,0.010850694444444444,53.88454861111111,0)" xlink:href="#ao"/><use transform="matrix(0.010850694444444444,0,0,0.010850694444444444,66.36284722222221,0)" xlink:href="#ap"/><use transform="matrix(0.010850694444444444,0,0,0.010850694444444444,74.35980902777777,0)" xlink:href="#aq"/><use transform="matrix(0.010850694444444444,0,0,0.010850694444444444,87.05512152777777,0)" xlink:href="#ar"/></g><path d="M754 19C571 19 479-89 437-179h-14V0H128v-1490h300v560h9c41-89 129-202 319-202 248 0 453 193 453 575 0 372-197 576-455 576zm-92-241c156 0 240-139 240-336 0-196-83-334-240-334-154 0-241 131-241 334 0 202 88 336 241 336" id="bb"/><path d="M428-1490V0H128v-1490h300" id="bc"/><g id="J"><use transform="matrix(0.010850694444444444,0,0,0.010850694444444444,0,0)" xlink:href="#ab"/><use transform="matrix(0.010850694444444444,0,0,0.010850694444444444,16.080729166666664,0)" xlink:href="#aI"/><use transform="matrix(0.010850694444444444,0,0,0.010850694444444444,30.088975694444443,0)" xlink:href="#aI"/><use transform="matrix(0.010850694444444444,0,0,0.010850694444444444,44.09722222222222,0)" xlink:href="#au"/><use transform="matrix(0.010850694444444444,0,0,0.010850694444444444,52.604166666666664,0)" xlink:href="#ag"/><use transform="matrix(0.010850694444444444,0,0,0.010850694444444444,65.84201388888889,0)" xlink:href="#ad"/><use transform="matrix(0.010850694444444444,0,0,0.010850694444444444,78.28776041666666,0)" xlink:href="#ad"/><use transform="matrix(0.010850694444444444,0,0,0.010850694444444444,89.09505208333331,0)" xlink:href="#ax"/><use transform="matrix(0.010850694444444444,0,0,0.010850694444444444,102.3003472222222,0)" xlink:href="#af"/><use transform="matrix(0.010850694444444444,0,0,0.010850694444444444,115.20182291666664,0)" xlink:href="#bb"/><use transform="matrix(0.010850694444444444,0,0,0.010850694444444444,129.21006944444443,0)" xlink:href="#ag"/><use transform="matrix(0.010850694444444444,0,0,0.010850694444444444,142.44791666666666,0)" xlink:href="#bc"/></g><path d="M370-1490V0H180v-1490h190" id="bd"/><g id="K"><use transform="matrix(0.010416666666666668,0,0,0.010416666666666668,0,0)" xlink:href="#an"/><use transform="matrix(0.010416666666666668,0,0,0.010416666666666668,12.437500000000002,0)" xlink:href="#aF"/><use transform="matrix(0.010416666666666668,0,0,0.010416666666666668,25.500000000000004,0)" xlink:href="#aC"/><use transform="matrix(0.010416666666666668,0,0,0.010416666666666668,30.66666666666667,0)" xlink:href="#aD"/><use transform="matrix(0.010416666666666668,0,0,0.010416666666666668,37.64583333333334,0)" xlink:href="#aC"/><use transform="matrix(0.010416666666666668,0,0,0.010416666666666668,42.81250000000001,0)" xlink:href="#aw"/><use transform="matrix(0.010416666666666668,0,0,0.010416666666666668,55.41666666666667,0)" xlink:href="#aX"/><use transform="matrix(0.010416666666666668,0,0,0.010416666666666668,68.5,0)" xlink:href="#bd"/><use transform="matrix(0.010416666666666668,0,0,0.010416666666666668,74.22916666666667,0)" xlink:href="#aF"/></g><g id="L"><use transform="matrix(0.010850694444444444,0,0,0.010850694444444444,0,0)" xlink:href="#ai"/><use transform="matrix(0.010850694444444444,0,0,0.010850694444444444,13.606770833333332,0)" xlink:href="#aj"/><use transform="matrix(0.010850694444444444,0,0,0.010850694444444444,26.931423611111104,0)" xlink:href="#aj"/><use transform="matrix(0.010850694444444444,0,0,0.010850694444444444,40.256076388888886,0)" xlink:href="#ak"/><use transform="matrix(0.010850694444444444,0,0,0.010850694444444444,52.45225694444444,0)" xlink:href="#al"/><use transform="matrix(0.010850694444444444,0,0,0.010850694444444444,64.18185763888889,0)" xlink:href="#am"/></g><path d="M763 24c-353 0-583-224-583-531v-983h190v968c0 214 149 370 393 370 243 0 391-156 391-370v-968h190v983c0 307-230 531-581 531" id="be"/><g id="M"><use transform="matrix(0.010850694444444444,0,0,0.010850694444444444,0,0)" xlink:href="#aj"/><use transform="matrix(0.010850694444444444,0,0,0.010850694444444444,13.324652777777777,0)" xlink:href="#aw"/><use transform="matrix(0.010850694444444444,0,0,0.010850694444444444,26.453993055555554,0)" xlink:href="#be"/><use transform="matrix(0.010850694444444444,0,0,0.010850694444444444,42.990451388888886,0)" xlink:href="#aH"/><use transform="matrix(0.010850694444444444,0,0,0.010850694444444444,56.59722222222221,0)" xlink:href="#aF"/><use transform="matrix(0.010850694444444444,0,0,0.010850694444444444,70.20399305555554,0)" xlink:href="#ao"/><use transform="matrix(0.010850694444444444,0,0,0.010850694444444444,82.68229166666666,0)" xlink:href="#aD"/><use transform="matrix(0.010850694444444444,0,0,0.010850694444444444,89.73524305555556,0)" xlink:href="#an"/></g><path d="M135 0v-1490h305v602h649v-602h306V0h-306v-635H440V0H135" id="bf"/><g id="N"><use transform="matrix(0.010850694444444444,0,0,0.010850694444444444,0,0)" xlink:href="#ax"/><use transform="matrix(0.010850694444444444,0,0,0.010850694444444444,13.20529513888889,0)" xlink:href="#af"/><use transform="matrix(0.010850694444444444,0,0,0.010850694444444444,26.106770833333336,0)" xlink:href="#bb"/><use transform="matrix(0.010850694444444444,0,0,0.010850694444444444,40.115017361111114,0)" xlink:href="#bc"/><use transform="matrix(0.010850694444444444,0,0,0.010850694444444444,46.13715277777778,0)" xlink:href="#ag"/><use transform="matrix(0.010850694444444444,0,0,0.010850694444444444,59.375,0)" xlink:href="#bf"/><use transform="matrix(0.010850694444444444,0,0,0.010850694444444444,75.9765625,0)" xlink:href="#ag"/><use transform="matrix(0.010850694444444444,0,0,0.010850694444444444,89.43142361111111,0)" xlink:href="#af"/><use transform="matrix(0.010850694444444444,0,0,0.010850694444444444,102.33289930555556,0)" xlink:href="#aI"/><use transform="matrix(0.010850694444444444,0,0,0.010850694444444444,116.34114583333333,0)" xlink:href="#ag"/><use transform="matrix(0.010850694444444444,0,0,0.010850694444444444,129.57899305555554,0)" xlink:href="#au"/></g><g id="O"><use transform="matrix(0.010850694444444444,0,0,0.010850694444444444,0,0)" xlink:href="#aw"/><use transform="matrix(0.010850694444444444,0,0,0.010850694444444444,13.129340277777777,0)" xlink:href="#aj"/><use transform="matrix(0.010850694444444444,0,0,0.010850694444444444,26.453993055555554,0)" xlink:href="#aw"/><use transform="matrix(0.010850694444444444,0,0,0.010850694444444444,39.58333333333333,0)" xlink:href="#an"/></g><path d="M135 0v-1490h581c339 0 533 192 533 485 0 204-94 351-264 424L1302 0H964L680-532H440V0H135zm305-779h220c186 0 274-77 274-226 0-150-88-233-275-233H440v459" id="bg"/><path d="M361 0L31-1118h315c68 295 127 523 188 845 63-317 128-551 199-845h276c71 296 131 525 196 846 57-321 119-552 186-846h319L1378 0h-305c-73-261-148-486-204-771C813-484 740-261 666 0H361" id="bh"/><g id="P"><use transform="matrix(0.010850694444444444,0,0,0.010850694444444444,0,0)" xlink:href="#ax"/><use transform="matrix(0.010850694444444444,0,0,0.010850694444444444,13.20529513888889,0)" xlink:href="#af"/><use transform="matrix(0.010850694444444444,0,0,0.010850694444444444,26.106770833333336,0)" xlink:href="#bb"/><use transform="matrix(0.010850694444444444,0,0,0.010850694444444444,40.115017361111114,0)" xlink:href="#bc"/><use transform="matrix(0.010850694444444444,0,0,0.010850694444444444,46.13715277777778,0)" xlink:href="#ag"/><use transform="matrix(0.010850694444444444,0,0,0.010850694444444444,59.375,0)" xlink:href="#bg"/><use transform="matrix(0.010850694444444444,0,0,0.010850694444444444,73.69791666666666,0)" xlink:href="#av"/><use transform="matrix(0.010850694444444444,0,0,0.010850694444444444,87.02256944444443,0)" xlink:href="#bh"/></g><path d="M645 0H180v-1490h484c435 0 692 280 692 742 0 466-257 748-711 748zM370-168h263c363 0 539-218 539-580 0-358-176-574-521-574H370v1154" id="bi"/><g id="Q"><use transform="matrix(0.010416666666666668,0,0,0.010416666666666668,0,0)" xlink:href="#aE"/><use transform="matrix(0.010416666666666668,0,0,0.010416666666666668,5.166666666666667,0)" xlink:href="#aj"/><use transform="matrix(0.010416666666666668,0,0,0.010416666666666668,17.958333333333336,0)" xlink:href="#aq"/><use transform="matrix(0.010416666666666668,0,0,0.010416666666666668,30.35416666666667,0)" xlink:href="#ao"/><use transform="matrix(0.010416666666666668,0,0,0.010416666666666668,42.33333333333334,0)" xlink:href="#aE"/><use transform="matrix(0.010416666666666668,0,0,0.010416666666666668,47.50000000000001,0)" xlink:href="#bi"/><use transform="matrix(0.010416666666666668,0,0,0.010416666666666668,62.89583333333334,0)" xlink:href="#ao"/><use transform="matrix(0.010416666666666668,0,0,0.010416666666666668,74.87500000000001,0)" xlink:href="#aD"/><use transform="matrix(0.010416666666666668,0,0,0.010416666666666668,81.95833333333336,0)" xlink:href="#ao"/></g><g id="R"><use transform="matrix(0.010416666666666668,0,0,0.010416666666666668,0,0)" xlink:href="#ai"/><use transform="matrix(0.010416666666666668,0,0,0.010416666666666668,13.062500000000002,0)" xlink:href="#aj"/><use transform="matrix(0.010416666666666668,0,0,0.010416666666666668,25.854166666666668,0)" xlink:href="#aj"/><use transform="matrix(0.010416666666666668,0,0,0.010416666666666668,38.64583333333334,0)" xlink:href="#ak"/><use transform="matrix(0.010416666666666668,0,0,0.010416666666666668,50.35416666666668,0)" xlink:href="#am"/></g><path d="M180 0v-1490h908v168H370v486h669v168H370v500h727V0H180" id="bj"/><g id="S"><use transform="matrix(0.010416666666666668,0,0,0.010416666666666668,0,0)" xlink:href="#aC"/><use transform="matrix(0.010416666666666668,0,0,0.010416666666666668,5.166666666666667,0)" xlink:href="#al"/><use transform="matrix(0.010416666666666668,0,0,0.010416666666666668,16.427083333333336,0)" xlink:href="#bj"/><use transform="matrix(0.010416666666666668,0,0,0.010416666666666668,29.250000000000004,0)" xlink:href="#aF"/><use transform="matrix(0.010416666666666668,0,0,0.010416666666666668,42.31250000000001,0)" xlink:href="#aC"/><use transform="matrix(0.010416666666666668,0,0,0.010416666666666668,47.47916666666667,0)" xlink:href="#aD"/><use transform="matrix(0.010416666666666668,0,0,0.010416666666666668,54.45833333333334,0)" xlink:href="#aC"/><use transform="matrix(0.010416666666666668,0,0,0.010416666666666668,59.62500000000001,0)" xlink:href="#aw"/><use transform="matrix(0.010416666666666668,0,0,0.010416666666666668,72.22916666666667,0)" xlink:href="#aX"/><use transform="matrix(0.010416666666666668,0,0,0.010416666666666668,85.3125,0)" xlink:href="#am"/></g><g id="T"><use transform="matrix(0.010416666666666668,0,0,0.010416666666666668,0,0)" xlink:href="#aj"/><use transform="matrix(0.010416666666666668,0,0,0.010416666666666668,12.791666666666668,0)" xlink:href="#aw"/><use transform="matrix(0.010416666666666668,0,0,0.010416666666666668,25.395833333333336,0)" xlink:href="#bj"/><use transform="matrix(0.010416666666666668,0,0,0.010416666666666668,38.21875,0)" xlink:href="#aF"/><use transform="matrix(0.010416666666666668,0,0,0.010416666666666668,51.28124999999999,0)" xlink:href="#aC"/><use transform="matrix(0.010416666666666668,0,0,0.010416666666666668,56.447916666666664,0)" xlink:href="#aD"/><use transform="matrix(0.010416666666666668,0,0,0.010416666666666668,63.42708333333333,0)" xlink:href="#am"/></g><g id="U"><use transform="matrix(0.010416666666666668,0,0,0.010416666666666668,0,0)" xlink:href="#aj"/><use transform="matrix(0.010416666666666668,0,0,0.010416666666666668,12.791666666666668,0)" xlink:href="#aw"/><use transform="matrix(0.010416666666666668,0,0,0.010416666666666668,25.395833333333336,0)" xlink:href="#ba"/><use transform="matrix(0.010416666666666668,0,0,0.010416666666666668,39.083333333333336,0)" xlink:href="#ao"/><use transform="matrix(0.010416666666666668,0,0,0.010416666666666668,50.74999999999999,0)" xlink:href="#aB"/><use transform="matrix(0.010416666666666668,0,0,0.010416666666666668,62.32291666666667,0)" xlink:href="#an"/><use transform="matrix(0.010416666666666668,0,0,0.010416666666666668,74.76041666666667,0)" xlink:href="#am"/></g><g id="V"><use transform="matrix(0.010416666666666668,0,0,0.010416666666666668,0,0)" xlink:href="#aj"/><use transform="matrix(0.010416666666666668,0,0,0.010416666666666668,12.791666666666668,0)" xlink:href="#aw"/><use transform="matrix(0.010416666666666668,0,0,0.010416666666666668,25.395833333333336,0)" xlink:href="#aQ"/><use transform="matrix(0.010416666666666668,0,0,0.010416666666666668,40.97916666666667,0)" xlink:href="#ao"/><use transform="matrix(0.010416666666666668,0,0,0.010416666666666668,52.958333333333336,0)" xlink:href="#aw"/><use transform="matrix(0.010416666666666668,0,0,0.010416666666666668,65.56250000000001,0)" xlink:href="#aq"/><use transform="matrix(0.010416666666666668,0,0,0.010416666666666668,77.75000000000001,0)" xlink:href="#an"/><use transform="matrix(0.010416666666666668,0,0,0.010416666666666668,90.18750000000001,0)" xlink:href="#aE"/></g><path d="M135 0v-1490h997v253H440v360h640v249H440v375h694V0H135" id="bk"/><path d="M128 0v-1118h300V0H128zm150-1264c-91 0-165-68-165-154 0-85 74-154 165-154 90 0 165 69 165 154 0 86-75 154-165 154" id="bl"/><path d="M786 20C389 20 94-260 94-744c0-487 299-766 692-766 339 0 597 194 641 529h-309c-28-162-156-258-326-258-233 0-388 179-388 495 0 323 157 493 387 493 170 0 298-97 328-259h309c-34 277-266 530-642 530" id="bm"/><g id="W"><use transform="matrix(0.010416666666666668,0,0,0.010416666666666668,0,0)" xlink:href="#bk"/><use transform="matrix(0.010416666666666668,0,0,0.010416666666666668,12.958333333333334,0)" xlink:href="#aI"/><use transform="matrix(0.010416666666666668,0,0,0.010416666666666668,26.406249999999996,0)" xlink:href="#bl"/><use transform="matrix(0.010416666666666668,0,0,0.010416666666666668,32.1875,0)" xlink:href="#ae"/><use transform="matrix(0.010416666666666668,0,0,0.010416666666666668,40.104166666666664,0)" xlink:href="#af"/><use transform="matrix(0.010416666666666668,0,0,0.010416666666666668,52.48958333333333,0)" xlink:href="#bb"/><use transform="matrix(0.010416666666666668,0,0,0.010416666666666668,65.9375,0)" xlink:href="#bc"/><use transform="matrix(0.010416666666666668,0,0,0.010416666666666668,71.71875,0)" xlink:href="#ag"/><use transform="matrix(0.010416666666666668,0,0,0.010416666666666668,84.42708333333333,0)" xlink:href="#bm"/><use transform="matrix(0.010416666666666668,0,0,0.010416666666666668,100.20833333333333,0)" xlink:href="#ag"/><use transform="matrix(0.010416666666666668,0,0,0.010416666666666668,112.91666666666666,0)" xlink:href="#bc"/><use transform="matrix(0.010416666666666668,0,0,0.010416666666666668,118.69791666666666,0)" xlink:href="#bc"/></g><g id="X"><use transform="matrix(0.010416666666666668,0,0,0.010416666666666668,0,0)" xlink:href="#aC"/><use transform="matrix(0.010416666666666668,0,0,0.010416666666666668,5.166666666666667,0)" xlink:href="#al"/><use transform="matrix(0.010416666666666668,0,0,0.010416666666666668,16.427083333333336,0)" xlink:href="#bj"/><use transform="matrix(0.010416666666666668,0,0,0.010416666666666668,29.250000000000004,0)" xlink:href="#aF"/><use transform="matrix(0.010416666666666668,0,0,0.010416666666666668,42.31250000000001,0)" xlink:href="#aC"/><use transform="matrix(0.010416666666666668,0,0,0.010416666666666668,47.47916666666667,0)" xlink:href="#aD"/><use transform="matrix(0.010416666666666668,0,0,0.010416666666666668,54.45833333333334,0)" xlink:href="#aC"/><use transform="matrix(0.010416666666666668,0,0,0.010416666666666668,59.62500000000001,0)" xlink:href="#aw"/><use transform="matrix(0.010416666666666668,0,0,0.010416666666666668,72.22916666666667,0)" xlink:href="#aX"/><use transform="matrix(0.010416666666666668,0,0,0.010416666666666668,85.3125,0)" xlink:href="#am"/></g><g id="Y"><use transform="matrix(0.010416666666666668,0,0,0.010416666666666668,0,0)" xlink:href="#aB"/><use transform="matrix(0.010416666666666668,0,0,0.010416666666666668,11.885416666666668,0)" xlink:href="#ao"/><use transform="matrix(0.010416666666666668,0,0,0.010416666666666668,23.864583333333336,0)" xlink:href="#aE"/><use transform="matrix(0.010416666666666668,0,0,0.010416666666666668,29.031250000000004,0)" xlink:href="#aW"/><use transform="matrix(0.010416666666666668,0,0,0.010416666666666668,41.645833333333336,0)" xlink:href="#an"/><use transform="matrix(0.010416666666666668,0,0,0.010416666666666668,54.08333333333334,0)" xlink:href="#am"/></g><g id="Z"><use transform="matrix(0.010416666666666668,0,0,0.010416666666666668,0,0)" xlink:href="#aj"/><use transform="matrix(0.010416666666666668,0,0,0.010416666666666668,12.791666666666668,0)" xlink:href="#aw"/><use transform="matrix(0.010416666666666668,0,0,0.010416666666666668,25.395833333333336,0)" xlink:href="#aQ"/><use transform="matrix(0.010416666666666668,0,0,0.010416666666666668,40.97916666666667,0)" xlink:href="#ar"/><use transform="matrix(0.010416666666666668,0,0,0.010416666666666668,53.59375000000001,0)" xlink:href="#ao"/><use transform="matrix(0.010416666666666668,0,0,0.010416666666666668,65.57291666666667,0)" xlink:href="#aw"/><use transform="matrix(0.010416666666666668,0,0,0.010416666666666668,78.17708333333334,0)" xlink:href="#aX"/><use transform="matrix(0.010416666666666668,0,0,0.010416666666666668,91.26041666666667,0)" xlink:href="#an"/></g><g id="aa"><use transform="matrix(0.010850694444444444,0,0,0.010850694444444444,0,0)" xlink:href="#aS"/><use transform="matrix(0.010850694444444444,0,0,0.010850694444444444,6.239149305555555,0)" xlink:href="#aP"/><use transform="matrix(0.010850694444444444,0,0,0.010850694444444444,20.07378472222222,0)" xlink:href="#ac"/><use transform="matrix(0.010850694444444444,0,0,0.010850694444444444,34.08203125,0)" xlink:href="#aO"/><use transform="matrix(0.010850694444444444,0,0,0.010850694444444444,47.916666666666664,0)" xlink:href="#ae"/></g></defs></g></svg>